<svg xmlns="http://www.w3.org/2000/svg" viewBox="0 0 750 500"><ellipse cx="375" cy="424.24" rx="328.77" ry="36.37" style="fill:#ebebeb"/><path d="m50.72 373.19 81.07-.24 81.07-.09 162.14-.17 162.14.17 81.07.09 81.07.24-81.07.25-81.07.08-162.14.17-162.14-.17-81.07-.09z" style="fill:#263238"/><path d="M166.06 102.6h416.19V381H166.06z" style="fill:#dbdbdb"/><path d="M169.09 106h410.14v271.61H169.09z" style="fill:#263238"/><path d="M111.86 401.88h524.6v19.11h-524.6z" style="fill:#c7c7c7"/><path d="m111.86 401.88 54.2-20.88h416.19l54.21 20.88z" style="fill:#dbdbdb"/><path d="M170.91 394.48 205.89 381h336.54l34.98 13.48z" style="fill:#263238"/><path d="M192.27 126.63h363.78v230.34H192.27z" style="fill:#fff"/><path d="M191.96 126.63h364.09v8.86H191.96z" style="fill:#455a64"/><path d="M199 131.07a2.2 2.2 0 1 1-2.19-2.2 2.19 2.19 0 0 1 2.19 2.2" style="fill:#c7c7c7"/><path d="M208 131.07a2.2 2.2 0 1 1-2.2-2.2 2.19 2.19 0 0 1 2.2 2.2" style="fill:#fff"/><path d="M217 131.07a2.2 2.2 0 1 1-2.2-2.2 2.2 2.2 0 0 1 2.2 2.2" style="fill:#7e57c2"/><path d="m246.14 242-.11-8.86-.04-8.86-.08-17.72.08-17.72.04-8.86.11-8.86.11 8.86.04 8.86.08 17.72-.08 17.72-.04 8.86zM270.79 242l-.11-8.86-.04-8.86-.07-17.72.07-17.72.04-8.86.11-8.86.12 8.86.04 8.86.07 17.72-.07 17.72-.04 8.86zM295.45 242l-.12-8.86-.03-8.86-.08-17.72.07-17.72.04-8.86.12-8.86.11 8.86.04 8.86.07 17.72-.07 17.72-.04 8.86zM320.1 242l-.11-8.86-.04-8.86-.08-17.72.08-17.72.04-8.86.11-8.86.11 8.86.04 8.86.08 17.72-.08 17.72-.04 8.86zM344.75 242l-.11-8.86-.04-8.86-.08-17.72.08-17.72.04-8.86.11-8.86.11 8.86.04 8.86.08 17.72-.08 17.72-.04 8.86zM369.4 242l-.11-8.86-.04-8.86-.08-17.72.08-17.72.04-8.86.11-8.86.11 8.86.04 8.86.08 17.72-.08 17.72-.04 8.86zM394.05 242l-.11-8.86-.04-8.86-.08-17.72.08-17.72.04-8.86.11-8.86.12 8.86.03 8.86.08 17.72-.08 17.72-.04 8.86zM418.7 242l-.11-8.86-.04-8.86-.07-17.72.07-17.72.04-8.86.11-8.86.12 8.86.04 8.86.07 17.72-.07 17.72-.04 8.86zM443.36 242l-.11-8.86-.05-8.86-.07-17.72.07-17.72.05-8.86.11-8.86.11 8.86.04 8.86.07 17.72-.07 17.72-.04 8.86zM468.01 242l-.11-8.86-.04-8.86-.08-17.72.08-17.72.04-8.86.11-8.86.11 8.86.04 8.86.08 17.72-.08 17.72-.04 8.86zM492.66 242l-.11-8.86-.04-8.86-.08-17.72.08-17.72.04-8.86.11-8.86.11 8.86.04 8.86.08 17.72-.08 17.72-.04 8.86zM517.31 242l-.11-8.86-.04-8.86-.08-17.72.08-17.72.04-8.86.11-8.86.11 8.86.04 8.86.08 17.72-.08 17.72-.04 8.86z" style="fill:#ebebeb"/><path d="m221.49 171.12 76.9-.15 76.91-.08 76.9.07 76.9.16-76.9.15-76.9.07-76.91-.07zM221.49 188.29l76.9-.15 76.91-.08 76.9.08 76.9.15-76.9.15-76.9.08-76.91-.08zM221.49 205.46l76.9-.15 76.91-.08 76.9.08 76.9.15-76.9.15-76.9.08-76.91-.08zM221.49 222.63l76.9-.15 76.91-.08 76.9.08 76.9.15-76.9.15-76.9.08-76.91-.08z" style="fill:#ebebeb"/><path d="m221.49 205.46 24.6-8.79 24.64-1.31h.11l24.67 9.8h-.06l24.66 4.38h-.09l24.64-2.18-.16.05c8.21-4.41 16.41-8.83 24.65-13.19l.08-.05h.09l24.68-1.88h.11l24.64 5.12h-.18l24.67-9.4h.13l24.63 2.62 24.69-6 9.19.06-9.19.05-24.61 6.33H468l-24.66-2.5h.13L418.82 198h-.18l-24.66-5h.1l-24.64 2 .17-.05c-8.2 4.42-16.44 8.78-24.66 13.15h-.16l-24.66 2.08H320l-24.64-4.48h-.06l-24.63-9.9h.11l-24.63 1.2Z" style="fill:#7e57c2"/><path d="M248.2 196.82a2.06 2.06 0 1 1-2.06-2 2.06 2.06 0 0 1 2.06 2" style="fill:#fff"/><path d="M246.14 199.34a2.52 2.52 0 1 1 2.52-2.52 2.52 2.52 0 0 1-2.52 2.52m0-4.12a1.6 1.6 0 1 0 1.6 1.6 1.6 1.6 0 0 0-1.6-1.6" style="fill:#7e57c2"/><circle cx="270.79" cy="195.66" r="2.06" style="fill:#fff"/><path d="M270.79 198.17a2.51 2.51 0 1 1 2.52-2.51 2.52 2.52 0 0 1-2.52 2.51m0-4.11a1.6 1.6 0 1 0 1.6 1.6 1.6 1.6 0 0 0-1.6-1.6" style="fill:#7e57c2"/><circle cx="320.1" cy="209.89" r="2.06" style="fill:#fff"/><path d="M320.1 212.4a2.51 2.51 0 1 1 2.51-2.51 2.51 2.51 0 0 1-2.51 2.51m0-4.11a1.6 1.6 0 1 0 1.6 1.6 1.6 1.6 0 0 0-1.6-1.6" style="fill:#7e57c2"/><circle cx="369.25" cy="194.77" r="2.06" style="fill:#fff"/><path d="M369.25 197.28a2.51 2.51 0 1 1 2.51-2.51 2.51 2.51 0 0 1-2.51 2.51m0-4.11a1.6 1.6 0 1 0 1.6 1.6 1.6 1.6 0 0 0-1.6-1.6" style="fill:#7e57c2"/><path d="M420.76 197.94a2.06 2.06 0 1 1-2.05-2.06 2.05 2.05 0 0 1 2.05 2.06" style="fill:#fff"/><path d="M418.7 200.45a2.51 2.51 0 1 1 2.52-2.51 2.52 2.52 0 0 1-2.52 2.51m0-4.11a1.6 1.6 0 1 0 1.6 1.6 1.6 1.6 0 0 0-1.6-1.6" style="fill:#7e57c2"/><circle cx="344.75" cy="207.84" r="2.06" style="fill:#fff"/><path d="M344.75 210.35a2.52 2.52 0 1 1 2.51-2.51 2.51 2.51 0 0 1-2.51 2.51m0-4.11a1.6 1.6 0 1 0 1.6 1.6 1.6 1.6 0 0 0-1.6-1.6" style="fill:#7e57c2"/><circle cx="394.05" cy="192.71" r="2.06" style="fill:#fff"/><path d="M394.05 195.22a2.51 2.51 0 1 1 2.52-2.51 2.51 2.51 0 0 1-2.52 2.51m0-4.11a1.6 1.6 0 1 0 1.6 1.6 1.6 1.6 0 0 0-1.6-1.6" style="fill:#7e57c2"/><circle cx="468.01" cy="190.66" r="2.06" style="fill:#fff"/><path d="M468 193.17a2.52 2.52 0 1 1 2.51-2.51 2.51 2.51 0 0 1-2.51 2.51m0-4.11a1.6 1.6 0 1 0 1.6 1.6 1.6 1.6 0 0 0-1.6-1.6" style="fill:#7e57c2"/><path d="M494.72 184.67a2.06 2.06 0 1 1-2.06-2.06 2.05 2.05 0 0 1 2.06 2.06" style="fill:#fff"/><path d="M492.66 187.18a2.52 2.52 0 1 1 2.51-2.51 2.52 2.52 0 0 1-2.51 2.51m0-4.11a1.6 1.6 0 1 0 1.6 1.6 1.6 1.6 0 0 0-1.6-1.6" style="fill:#7e57c2"/><circle cx="443.36" cy="188.17" r="2.06" style="fill:#fff"/><path d="M443.36 190.68a2.51 2.51 0 1 1 2.51-2.51 2.51 2.51 0 0 1-2.51 2.51m0-4.11a1.6 1.6 0 1 0 1.59 1.6 1.6 1.6 0 0 0-1.59-1.6" style="fill:#7e57c2"/><circle cx="295.45" cy="205.46" r="2.06" style="fill:#fff"/><path d="M295.45 208a2.51 2.51 0 1 1 2.51-2.51 2.52 2.52 0 0 1-2.51 2.51m0-4.11a1.6 1.6 0 1 0 1.6 1.6 1.6 1.6 0 0 0-1.6-1.63Z" style="fill:#7e57c2"/><path d="m221.49 222.73 24.63-3.19h-.07l24.6-17 24.64-9.25h.21l24.66 8.26L345 216.91h-.37c8.21-3.27 16.41-6.56 24.64-9.77l.18-.07.18.08 24.62 12.23-.46.1 24.69-29 .15-.18.22.09 24.63 9.28h-.13l24.66-3 24.64 1.27 9.21-3.11-9.18 3.17-24.68-1-24.64 3.13h-.13L418.59 191l.37-.1-24.61 29.07-.2.23-.27-.13-24.67-12.13h.35c-8.2 3.29-16.43 6.5-24.66 9.73l-.19.08-.18-.11-24.63-15.41h.08l-24.63-8.36h.21L270.88 203h.06l-24.71 16.82Z" style="fill:#37474f"/><circle cx="246.14" cy="219.69" r="2.06" style="fill:#fff"/><path d="M246.14 222.21a2.52 2.52 0 1 1 2.52-2.52 2.52 2.52 0 0 1-2.52 2.52m0-4.11a1.6 1.6 0 1 0 1.6 1.59 1.6 1.6 0 0 0-1.6-1.59" style="fill:#37474f"/><circle cx="270.79" cy="202.8" r="2.06" style="fill:#fff"/><path d="M270.79 205.31a2.51 2.51 0 1 1 2.52-2.51 2.52 2.52 0 0 1-2.52 2.51m0-4.11a1.6 1.6 0 1 0 1.6 1.6 1.6 1.6 0 0 0-1.6-1.6" style="fill:#37474f"/><circle cx="320.1" cy="202.07" r="2.06" style="fill:#fff"/><path d="M320.1 204.58a2.52 2.52 0 1 1 2.51-2.51 2.51 2.51 0 0 1-2.51 2.51m0-4.11a1.6 1.6 0 1 0 1.6 1.6 1.6 1.6 0 0 0-1.6-1.6" style="fill:#37474f"/><circle cx="369.25" cy="207.84" r="2.06" style="fill:#fff"/><path d="M369.25 210.35a2.52 2.52 0 1 1 2.51-2.51 2.51 2.51 0 0 1-2.51 2.51m0-4.11a1.6 1.6 0 1 0 1.6 1.6 1.6 1.6 0 0 0-1.6-1.6" style="fill:#37474f"/><circle cx="418.71" cy="190.66" r="2.06" style="fill:#fff"/><path d="M418.7 193.17a2.52 2.52 0 1 1 2.52-2.51 2.52 2.52 0 0 1-2.52 2.51m0-4.11a1.6 1.6 0 1 0 1.6 1.6 1.6 1.6 0 0 0-1.6-1.6" style="fill:#37474f"/><circle cx="344.75" cy="216.96" r="2.06" style="fill:#fff"/><path d="M344.75 219.47a2.51 2.51 0 1 1 2.51-2.51 2.51 2.51 0 0 1-2.51 2.51m0-4.11a1.6 1.6 0 1 0 1.6 1.6 1.6 1.6 0 0 0-1.6-1.6" style="fill:#37474f"/><circle cx="394.05" cy="219.32" r="2.06" style="fill:#fff"/><path d="M394.05 221.83a2.51 2.51 0 1 1 2.52-2.51 2.51 2.51 0 0 1-2.52 2.51m0-4.11a1.6 1.6 0 1 0 1.6 1.6 1.6 1.6 0 0 0-1.6-1.6" style="fill:#37474f"/><path d="M470.06 196.84a2.06 2.06 0 1 1-2.05-2.06 2.05 2.05 0 0 1 2.05 2.06" style="fill:#fff"/><path d="M468 199.35a2.52 2.52 0 1 1 2.51-2.51 2.51 2.51 0 0 1-2.51 2.51m0-4.11a1.6 1.6 0 1 0 1.6 1.6 1.6 1.6 0 0 0-1.6-1.6" style="fill:#37474f"/><path d="M494.72 197.94a2.06 2.06 0 1 1-2.06-2.06 2.05 2.05 0 0 1 2.06 2.06" style="fill:#fff"/><path d="M492.66 200.45a2.51 2.51 0 1 1 2.51-2.51 2.52 2.52 0 0 1-2.51 2.51m0-4.11a1.6 1.6 0 1 0 1.6 1.6 1.6 1.6 0 0 0-1.6-1.6" style="fill:#37474f"/><circle cx="443.36" cy="199.99" r="2.06" style="fill:#fff"/><path d="M443.36 202.51a2.52 2.52 0 1 1 2.51-2.52 2.52 2.52 0 0 1-2.51 2.52m0-4.12A1.6 1.6 0 1 0 445 200a1.6 1.6 0 0 0-1.64-1.61" style="fill:#37474f"/><circle cx="295.45" cy="193.6" r="2.06" style="fill:#fff"/><path d="M295.45 196.12a2.52 2.52 0 1 1 2.55-2.52 2.52 2.52 0 0 1-2.55 2.52m0-4.11a1.6 1.6 0 1 0 1.6 1.59 1.6 1.6 0 0 0-1.6-1.6Z" style="fill:#37474f"/><path d="m221.49 167.47.17 35.33.1 35.33-.27-.27 76.9-.12 38.45-.07 38.46.06 76.9.12c25.63 0 51.27.16 76.9.28-25.63.12-51.27.26-76.9.27l-76.9.13-38.46.05-38.45-.06-76.9-.12h-.27v-.27l.1-35.33Z" style="fill:#dbdbdb"/><path d="M219.22 171.12a5.3 5.3 0 0 1 2.27-.46 5.1 5.1 0 0 1 2.27.46 6 6 0 0 1-4.54 0M219.22 188.29a5.4 5.4 0 0 1 2.27-.46 5.25 5.25 0 0 1 2.27.46 6 6 0 0 1-4.54 0M219.22 205.46a5.83 5.83 0 0 1 4.54 0 5.83 5.83 0 0 1-4.54 0M219.22 222.63a5.83 5.83 0 0 1 4.54 0 5.83 5.83 0 0 1-4.54 0M240.08 245.41a.07.07 0 0 1 .08 0 .5.5 0 0 0 .49.36.51.51 0 0 0 .52-.51v-1.21a.07.07 0 0 1 .07-.07.07.07 0 0 1 .06.07v1.21a.65.65 0 0 1-1.27.2.07.07 0 0 1 .05-.05M242.8 245.45h-.87l-.17.45a.08.08 0 0 1-.07 0 .07.07 0 0 1 0-.08l.67-1.79a.08.08 0 0 1 .06 0 .08.08 0 0 1 .07 0l.67 1.79a.07.07 0 0 1 0 .08.08.08 0 0 1-.07 0Zm-.82-.13h.77l-.38-1ZM243.66 244.31v1.57a.07.07 0 0 1-.06.07.07.07 0 0 1-.07-.07v-1.76a.08.08 0 0 1 0-.08.08.08 0 0 1 .1 0l1.16 1.62v-1.57a.07.07 0 1 1 .14 0v1.77a.07.07 0 0 1-.07.07ZM245.5 244.09a.07.07 0 1 1 .14 0v1.08a.64.64 0 0 0 .64.64.64.64 0 0 0 .64-.64v-1.08a.07.07 0 0 1 .14 0v1.08a.78.78 0 0 1-1.56 0ZM248.65 245.45h-.88l-.17.45a.07.07 0 0 1-.06 0 .07.07 0 0 1 0-.08l.67-1.79a.08.08 0 0 1 .07 0 .07.07 0 0 1 .06 0l.67 1.79a.06.06 0 0 1 0 .08.06.06 0 0 1-.06 0Zm-.83-.13h.78l-.39-1ZM250.32 245.51a.35.35 0 0 0-.16-.29.46.46 0 0 0-.22-.09h-.48v.76a.07.07 0 0 1-.07.07.07.07 0 0 1-.06-.07v-1.79a.07.07 0 0 1 .06-.07h.55a.55.55 0 0 1 .54.55.56.56 0 0 1-.31.5.47.47 0 0 1 .26.42.6.6 0 0 0 0 .23.08.08 0 0 1 .07.05.07.07 0 0 1 0 .08.16.16 0 0 1-.13-.09.7.7 0 0 1-.05-.26m-.38-1.35h-.48v.84h.54a.42.42 0 0 0 .4-.42.41.41 0 0 0-.46-.42M251.54 245l-.65-.88a.07.07 0 0 1 0-.09.06.06 0 0 1 .09 0l.6.83.6-.83a.07.07 0 0 1 .1 0 .06.06 0 0 1 0 .09l-.64.88v.86a.07.07 0 0 1-.07.07.07.07 0 0 1-.06-.07ZM264.27 244.09a.07.07 0 0 1 .06-.07h1a.07.07 0 1 1 0 .14h-.92v.76h.81a.07.07 0 0 1 .07.07.07.07 0 0 1-.07.06h-.81v.83a.07.07 0 0 1-.07.07.07.07 0 0 1-.06-.07ZM265.92 244.09a.07.07 0 0 1 .08-.09h1s.06 0 .06.07 0 .07-.06.07h-.92v.76h.8a.07.07 0 0 1 .07.07.07.07 0 0 1-.07.06h-.8v.76h.92s.06 0 .06.07 0 .07-.06.07h-1a.07.07 0 0 1-.06-.07ZM267.55 244.09a.07.07 0 0 1 .07-.07h.38a.48.48 0 0 1 .48.49.47.47 0 0 1-.18.37.54.54 0 0 1 .37.52.55.55 0 0 1-.55.55h-.55a.07.07 0 0 1-.06-.07Zm.49.76a.35.35 0 0 0 .35-.34.35.35 0 0 0-.35-.35h-.36v.69Zm.12 1a.41.41 0 0 0 .42-.41.42.42 0 0 0-.42-.42h-.48v.83ZM270.13 245.51a.36.36 0 0 0-.15-.29.55.55 0 0 0-.22-.09h-.49v.76a.07.07 0 0 1-.06.07.07.07 0 0 1-.07-.07v-1.79a.09.09 0 0 1 .06-.07h.55a.55.55 0 0 1 .23 1 .49.49 0 0 1 .26.42 1 1 0 0 0 0 .23.08.08 0 0 1 .07.05.07.07 0 0 1 0 .08.15.15 0 0 1-.12-.09.6.6 0 0 1-.06-.21m-.38-1.35h-.48v.84h.49a.42.42 0 0 0 .4-.42.41.41 0 0 0-.41-.42M270.73 244.09a.07.07 0 0 1 .07-.07.07.07 0 0 1 .06.07v1.08a.65.65 0 0 0 1.29 0v-1.08a.07.07 0 0 1 .14 0v1.08a.78.78 0 1 1-1.56 0ZM273.87 245.45H273l-.17.45a.08.08 0 0 1-.07 0 .07.07 0 0 1 0-.08l.67-1.79a.08.08 0 0 1 .06 0 .07.07 0 0 1 .07 0l.67 1.79a.06.06 0 0 1 0 .08.06.06 0 0 1-.06 0Zm-.82-.13h.77l-.38-1ZM275.55 245.51a.35.35 0 0 0-.16-.29.46.46 0 0 0-.22-.09h-.48v.76a.07.07 0 0 1-.07.07.07.07 0 0 1-.06-.07v-1.79a.07.07 0 0 1 .06-.07h.55a.55.55 0 0 1 .54.55.56.56 0 0 1-.31.5.47.47 0 0 1 .26.42.6.6 0 0 0 0 .23.09.09 0 0 1 .08.05.07.07 0 0 1-.05.08.16.16 0 0 1-.13-.09.7.7 0 0 1-.01-.26m-.38-1.35h-.48v.84h.49a.42.42 0 0 0 .4-.42.41.41 0 0 0-.41-.42M276.77 245l-.65-.88a.07.07 0 0 1 0-.09.07.07 0 0 1 .1 0l.6.83.6-.83a.07.07 0 0 1 .1 0 .06.06 0 0 1 0 .09l-.64.88v.86a.07.07 0 0 1-.07.07.07.07 0 0 1-.06-.07ZM292.38 244.3l-.62.85h-.05a.06.06 0 0 1-.06 0l-.61-.85v1.58a.07.07 0 0 1-.14 0v-1.78a.07.07 0 0 1 .09 0l.68.95.68-.95a.08.08 0 0 1 .1 0v1.78a.07.07 0 0 1-.07.07s-.06 0-.06-.07ZM294.08 245.45h-.88l-.17.45a.06.06 0 0 1-.06 0 .05.05 0 0 1 0-.08l.66-1.79a.1.1 0 0 1 .07 0 .08.08 0 0 1 .07 0l.66 1.79a.06.06 0 0 1 0 .08.07.07 0 0 1-.06 0Zm-.83-.13h.75l-.39-1ZM295.76 245.51a.37.37 0 0 0-.16-.29.55.55 0 0 0-.22-.09h-.48v.76a.07.07 0 0 1-.14 0v-1.79a.09.09 0 0 1 .06-.07h.55a.55.55 0 0 1 .23 1 .47.47 0 0 1 .26.42 1 1 0 0 0 0 .23.08.08 0 0 1 .07.05.06.06 0 0 1 0 .08.16.16 0 0 1-.12-.09.6.6 0 0 1-.05-.21m-.39-1.35h-.47v.84h.48a.43.43 0 0 0 .41-.42.41.41 0 0 0-.42-.42M297.43 244a1 1 0 0 1 .62.21.06.06 0 0 1 0 .09.06.06 0 0 1-.09 0 .87.87 0 0 0-1.41.66.85.85 0 0 0 .87.83.8.8 0 0 0 .53-.18.07.07 0 0 1 .1 0 .08.08 0 0 1 0 .1 1 1 0 0 1-.62.21 1 1 0 1 1 0-1.95ZM299.75 245.05h-1v.83a.07.07 0 0 1-.07.07.07.07 0 0 1-.06-.07v-1.79a.07.07 0 0 1 .06-.07.07.07 0 0 1 .07.07v.83h1v-.83a.07.07 0 0 1 .14 0v1.79a.07.07 0 0 1-.14 0ZM317.7 245.45h-.87l-.17.45a.08.08 0 0 1-.07 0 .07.07 0 0 1 0-.08l.67-1.79a.08.08 0 0 1 .06 0 .07.07 0 0 1 .07 0l.67 1.79a.06.06 0 0 1 0 .08s-.05 0-.07 0Zm-.82-.13h.77l-.38-1ZM318.42 244.09a.07.07 0 0 1 .07-.07h.51a.55.55 0 0 1 .55.55.54.54 0 0 1-.55.55h-.47v.75a.07.07 0 0 1-.14 0Zm.61.9a.42.42 0 1 0 0-.83h-.47v.84ZM321 245.51a.35.35 0 0 0-.16-.29.5.5 0 0 0-.22-.09h-.48v.76a.07.07 0 0 1-.14 0v-1.79a.09.09 0 0 1 0-.1h.55a.55.55 0 0 1 .23 1 .47.47 0 0 1 .26.42 1 1 0 0 0 0 .23.09.09 0 0 1 .08.05.07.07 0 0 1-.05.08.16.16 0 0 1-.12-.09.7.7 0 0 1 .05-.18m-.39-1.35h-.47v.84h.48a.42.42 0 0 0 .41-.42.41.41 0 0 0-.44-.42ZM321.75 244.09a.07.07 0 0 1 .14 0v1.79a.07.07 0 0 1-.14 0ZM322.64 246a.07.07 0 0 1-.07-.07v-1.79a.07.07 0 0 1 .14 0v1.72h.92a.07.07 0 0 1 0 .14ZM343.84 244.3l-.62.85h-.1l-.62-.85v1.58a.07.07 0 0 1-.06.07.07.07 0 0 1-.07-.07v-1.78a.07.07 0 0 1 .09 0l.69.95.68-.95a.07.07 0 0 1 .09 0v1.78a.07.07 0 0 1-.06.07.07.07 0 0 1-.07-.07ZM345.54 245.45h-.87l-.17.45a.08.08 0 0 1-.07 0 .07.07 0 0 1 0-.08l.67-1.79a.08.08 0 0 1 .06 0 .07.07 0 0 1 .07 0l.67 1.79a.06.06 0 0 1 0 .08.06.06 0 0 1-.06 0Zm-.82-.13h.78l-.39-1ZM346.59 245l-.65-.88a.07.07 0 0 1 0-.09.07.07 0 0 1 .1 0l.6.83.6-.83a.07.07 0 0 1 .1 0 .06.06 0 0 1 0 .09l-.64.88v.86a.07.07 0 0 1-.07.07.07.07 0 0 1-.06-.07ZM365.88 245.41h.08a.52.52 0 0 0 1-.15v-1.21a.07.07 0 0 1 .04-.05.07.07 0 0 1 .07.07v1.21a.65.65 0 0 1-1.27.2.08.08 0 0 1 .08-.07M367.63 244.09a.07.07 0 0 1 .06-.07.07.07 0 0 1 .07.07v1.08a.65.65 0 0 0 1.29 0v-1.08a.07.07 0 0 1 .06-.07.07.07 0 0 1 .07.07v1.08a.78.78 0 1 1-1.55 0ZM370 244.31v1.57a.07.07 0 0 1-.14 0v-1.76a.08.08 0 0 1 0-.08.07.07 0 0 1 .09 0l1.17 1.62v-1.57a.07.07 0 0 1 .06-.07.07.07 0 0 1 .07.07v1.77a.07.07 0 0 1-.07.07.05.05 0 0 1-.05 0ZM371.75 244.09a.07.07 0 0 1 .07-.07h1a.07.07 0 0 1 0 .14h-.92v.76h.8a.07.07 0 0 1 .07.07.07.07 0 0 1-.07.06h-.8v.76h.92a.07.07 0 0 1 0 .14h-1a.07.07 0 0 1-.06-.07ZM390.93 245.41a.08.08 0 0 1 .09 0 .5.5 0 0 0 .49.36.51.51 0 0 0 .52-.51v-1.21a.07.07 0 0 1 .07-.07.07.07 0 0 1 .06.07v1.21a.65.65 0 0 1-1.27.2.08.08 0 0 1 .04-.05M392.68 244.09a.07.07 0 1 1 .14 0v1.08a.64.64 0 0 0 .64.64.64.64 0 0 0 .64-.64v-1.08a.07.07 0 0 1 .14 0v1.08a.78.78 0 0 1-1.56 0ZM394.86 246a.07.07 0 0 1-.07-.07v-1.79a.07.07 0 0 1 .14 0v1.72h.92a.07.07 0 1 1 0 .14ZM396.5 245l-.65-.88a.07.07 0 0 1 0-.09.06.06 0 0 1 .09 0l.6.83.61-.83a.06.06 0 1 1 .1.08l-.64.88v.86a.07.07 0 0 1-.07.07.07.07 0 0 1-.06-.07ZM414.06 245.45h-.87l-.18.45a.06.06 0 0 1-.06 0 .05.05 0 0 1 0-.08l.67-1.79a.07.07 0 0 1 .06 0 .08.08 0 0 1 .07 0l.67 1.79a.07.07 0 0 1 0 .08.07.07 0 0 1-.06 0Zm-.83-.13h.77l-.39-1ZM414.71 244.09a.07.07 0 0 1 .14 0v1.08a.65.65 0 0 0 1.29 0v-1.08a.07.07 0 0 1 .06-.07.07.07 0 0 1 .07.07v1.08a.78.78 0 1 1-1.56 0ZM417.84 245.08a.07.07 0 0 1-.07-.06.07.07 0 0 1 .07-.07h.6s.06 0 .06.07v.7100000000000001a1 1 0 0 1-1.62-.77 1 1 0 0 1 1-1 1 1 0 0 1 .62.21.07.07 0 0 1 0 .1.07.07 0 0 1-.09 0 .87.87 0 0 0-1.41.73.85.85 0 0 0 .87.84.9.9 0 0 0 .51-.16v-.57ZM419.18 244.09a.07.07 0 0 1 .06-.07.07.07 0 0 1 .07.07v1.08a.65.65 0 0 0 1.29 0v-1.08a.07.07 0 0 1 .06-.07.07.07 0 0 1 .07.07v1.08a.78.78 0 1 1-1.55 0ZM421.32 245.59a.05.05 0 0 1 .08 0 1.16 1.16 0 0 0 .64.25.7.7 0 0 0 .42-.13.35.35 0 0 0 .16-.29.3.3 0 0 0-.15-.26 1.4 1.4 0 0 0-.47-.16 1.2 1.2 0 0 1-.46-.16.4.4 0 0 1-.19-.33.45.45 0 0 1 .2-.36.76.76 0 0 1 .45-.15 1 1 0 0 1 .59.22.06.06 0 0 1-.06.1 1 1 0 0 0-.53-.2.67.67 0 0 0-.39.11.33.33 0 0 0-.15.27.27.27 0 0 0 .14.23 1.2 1.2 0 0 0 .41.15 1.4 1.4 0 0 1 .49.17.44.44 0 0 1 .21.36.48.48 0 0 1-.22.39.86.86 0 0 1-.49.15 1.15 1.15 0 0 1-.71-.28.05.05 0 0 1 .03-.08M423.69 244.16h-.58a.07.07 0 0 1 0-.14h1.29a.07.07 0 1 1 0 .14h-.58v1.72a.07.07 0 0 1-.06.07.07.07 0 0 1-.07-.07ZM435.66 245.59a.05.05 0 0 1 .08 0 1.16 1.16 0 0 0 .64.25.72.72 0 0 0 .42-.13.35.35 0 0 0 .16-.29.3.3 0 0 0-.15-.26 1.4 1.4 0 0 0-.45-.16 1.2 1.2 0 0 1-.46-.16.4.4 0 0 1-.19-.33.45.45 0 0 1 .2-.36.76.76 0 0 1 .46-.14 1 1 0 0 1 .59.22.05.05 0 0 1 0 .08.06.06 0 0 1-.08 0 1 1 0 0 0-.53-.2.65.65 0 0 0-.39.11.33.33 0 0 0-.15.27.27.27 0 0 0 .14.23 1.2 1.2 0 0 0 .41.15 1.4 1.4 0 0 1 .49.17.44.44 0 0 1 .21.36.48.48 0 0 1-.22.39.86.86 0 0 1-.49.15 1.15 1.15 0 0 1-.71-.28.05.05 0 0 1 .02-.07M437.58 244.09a.07.07 0 0 1 .06-.07h1a.07.07 0 0 1 0 .14h-.92v.76h.81a.07.07 0 0 1 .06.07.06.06 0 0 1-.06.06h-.81v.76h.92a.07.07 0 0 1 0 .14h-1a.07.07 0 0 1-.06-.07ZM439.2 244.09a.07.07 0 0 1 .07-.07h.54a.55.55 0 0 1 .55.55.55.55 0 0 1-.55.55h-.47v.75a.07.07 0 0 1-.14 0Zm.61.9a.42.42 0 1 0 0-.83h-.47v.84ZM441.3 244.16h-.58a.07.07 0 0 1 0-.14H442a.07.07 0 0 1 0 .14h-.58v1.72a.07.07 0 0 1-.07.07.07.07 0 0 1-.06-.07ZM442.58 244.09a.07.07 0 0 1 .06-.07h1a.07.07 0 0 1 0 .14h-.92v.76h.81a.07.07 0 0 1 .06.07.06.06 0 0 1-.06.06h-.81v.76h.92a.07.07 0 0 1 0 .14h-1a.07.07 0 0 1-.06-.07ZM445.69 244.3l-.62.85h-.05a.06.06 0 0 1-.06 0l-.61-.85v1.58a.07.07 0 0 1-.14 0v-1.78a.07.07 0 0 1 .09 0l.68.95.68-.95a.08.08 0 0 1 .1 0v1.78a.07.07 0 0 1-.07.07s-.06 0-.06-.07ZM446.52 244.09a.07.07 0 0 1 .06-.07h.42a.49.49 0 0 1 .48.49.5.5 0 0 1-.18.37.55.55 0 0 1-.18 1.07h-.55s-.06 0-.06-.07Zm.49.76a.34.34 0 0 0 .34-.34.34.34 0 0 0-.34-.35h-.36v.69Zm.12 1a.42.42 0 0 0 .42-.41.43.43 0 0 0-.42-.42h-.48v.83ZM448.14 244.09a.08.08 0 0 1 .07-.07h1a.07.07 0 0 1 0 .14h-.92v.76h.8a.07.07 0 0 1 .07.07.07.07 0 0 1-.07.06h-.8v.76h.92a.07.07 0 1 1 0 .14h-1s-.07 0-.07-.07ZM450.78 245.51a.36.36 0 0 0-.15-.29.5.5 0 0 0-.23-.09h-.48v.76a.07.07 0 0 1-.07.07.07.07 0 0 1-.06-.07v-1.79a.07.07 0 0 1 .06-.07h.55a.55.55 0 0 1 .23 1 .49.49 0 0 1 .25.42 1 1 0 0 0 0 .23.08.08 0 0 1 .07.05.07.07 0 0 1 0 .08.16.16 0 0 1-.13-.09.7.7 0 0 1-.04-.21m-.38-1.35h-.48v.84h.49a.42.42 0 0 0 .4-.42.41.41 0 0 0-.41-.42M462.51 244a1 1 0 1 1-.92 1 1 1 0 0 1 .92-1m0 1.81a.84.84 0 1 0-.79-.84.82.82 0 0 0 .79.84" style="fill:#dbdbdb"/><path d="M464.83 244a1 1 0 0 1 .63.21.06.06 0 0 1 0 .09.07.07 0 0 1-.1 0 .84.84 0 1 0 0 1.31.06.06 0 0 1 .09 0 .07.07 0 0 1 0 .1 1 1 0 0 1-.63.21 1 1 0 1 1 0-1.95ZM466.53 244.16H466a.07.07 0 0 1 0-.14h1.29a.07.07 0 0 1 0 .14h-.58v1.72a.07.07 0 0 1-.06.07.07.07 0 0 1-.07-.07ZM468.5 244a1 1 0 0 1 0 1.95 1 1 0 0 1 0-1.95m0 1.81a.84.84 0 1 0-.79-.84.82.82 0 0 0 .79.84M469.89 244.09a.07.07 0 0 1 .11-.09h.43a.49.49 0 0 1 .48.49.48.48 0 0 1-.19.37.55.55 0 0 1-.17 1.07H470a.07.07 0 0 1-.07-.07Zm.5.76a.34.34 0 0 0 .34-.34.34.34 0 0 0-.34-.35H470v.69Zm.12 1a.41.41 0 0 0 .41-.41.41.41 0 0 0-.41-.42H470v.83ZM471.52 244.09a.07.07 0 0 1 .07-.07h1s.06 0 .06.07 0 .07-.06.07h-.92v.76h.8a.07.07 0 0 1 .07.07.07.07 0 0 1-.07.06h-.8v.76h.92s.06 0 .06.07 0 .07-.06.07h-1a.07.07 0 0 1-.06-.07ZM474.16 245.51a.35.35 0 0 0-.16-.29.46.46 0 0 0-.22-.09h-.48v.76a.07.07 0 0 1-.07.07.07.07 0 0 1-.06-.07v-1.79a.07.07 0 0 1 .06-.07h.54a.55.55 0 0 1 .55.55.56.56 0 0 1-.31.5.47.47 0 0 1 .26.42.6.6 0 0 0 0 .23.09.09 0 0 1 .08.05.07.07 0 0 1-.05.08.16.16 0 0 1-.13-.09.7.7 0 0 1-.01-.26m-.39-1.35h-.47v.84h.49a.42.42 0 0 0 .4-.42.41.41 0 0 0-.42-.42M485.52 244.31v1.57a.07.07 0 0 1-.07.07.07.07 0 0 1-.06-.07v-1.76a.07.07 0 0 1 .12-.06l1.16 1.62v-1.57a.07.07 0 0 1 .07-.07.07.07 0 0 1 .06.07v1.77a.07.07 0 0 1-.06.07.07.07 0 0 1-.06 0ZM488.2 244a1 1 0 0 1 0 1.95 1 1 0 0 1 0-1.95m0 1.81a.84.84 0 1 0-.79-.84.81.81 0 0 0 .79.84M490.21 245.91l-.74-1.77a.07.07 0 0 1 0-.09.06.06 0 0 1 .09 0l.69 1.64.69-1.64a.06.06 0 0 1 .08 0 .07.07 0 0 1 0 .09l-.75 1.76a.05.05 0 0 1 0 .05h-.06zM491.55 244.09a.07.07 0 0 1 .07-.07h1a.07.07 0 0 1 0 .14h-.92v.76h.8a.07.07 0 0 1 .07.07.07.07 0 0 1-.07.06h-.8v.76h.92a.07.07 0 0 1 0 .14h-1a.07.07 0 0 1-.06-.07ZM494.66 244.3l-.62.85h-.1l-.62-.85v1.58a.07.07 0 0 1-.06.07.07.07 0 0 1-.07-.07v-1.78a.07.07 0 0 1 .09 0l.69.95.68-.95a.07.07 0 0 1 .09 0v1.78a.07.07 0 0 1-.06.07.07.07 0 0 1-.07-.07ZM495.49 244.09a.07.07 0 0 1 .07-.07h.44a.48.48 0 0 1 .47.49.47.47 0 0 1-.18.37.55.55 0 0 1-.17 1.07h-.56a.07.07 0 0 1-.06-.07Zm.5.76a.35.35 0 0 0 .34-.34.35.35 0 0 0-.34-.35h-.36v.69Zm.12 1a.41.41 0 0 0 .41-.41.42.42 0 0 0-.41-.42h-.48v.83ZM497.12 244.09a.07.07 0 0 1 .07-.07h1a.07.07 0 0 1 0 .14h-.92v.76h.81s.06 0 .06.07a.06.06 0 0 1-.06.06h-.81v.76h.92a.07.07 0 1 1 0 .14h-1a.07.07 0 0 1-.06-.07ZM499.76 245.51a.37.37 0 0 0-.16-.29.55.55 0 0 0-.22-.09h-.48v.76a.07.07 0 0 1-.14 0v-1.79a.09.09 0 0 1 .06-.07h.55a.55.55 0 0 1 .23 1 .47.47 0 0 1 .26.42 1 1 0 0 0 0 .23.08.08 0 0 1 .07.05.06.06 0 0 1 0 .08.16.16 0 0 1-.12-.09.7.7 0 0 1-.05-.21m-.39-1.35h-.47v.84h.48a.42.42 0 0 0 .41-.42.41.41 0 0 0-.42-.42M510.4 246a.07.07 0 0 1-.06-.07v-1.79a.07.07 0 0 1 .07-.07h.35a1 1 0 1 1 0 1.93Zm.35-.14a.83.83 0 1 0 0-1.65h-.29v1.65ZM512.16 244.09a.07.07 0 0 1 .07-.07h1s.06 0 .06.07 0 .07-.06.07h-.92v.76h.8a.07.07 0 0 1 .07.07.07.07 0 0 1-.07.06h-.8v.76h.92s.06 0 .06.07 0 .07-.06.07h-1a.07.07 0 0 1-.06-.07ZM514.7 244a1 1 0 0 1 .63.21.08.08 0 0 1 0 .09.07.07 0 0 1-.1 0 .84.84 0 1 0 0 1.31.06.06 0 0 1 .09 0 .08.08 0 0 1 0 .1 1 1 0 0 1-.63.21 1 1 0 1 1 0-1.95ZM515.9 244.09a.07.07 0 0 1 .1-.09h1s.06 0 .06.07 0 .07-.06.07h-1v.76h.8a.07.07 0 0 1 .07.07.07.07 0 0 1-.07.06h-.8v.76h1s.06 0 .06.07 0 .07-.06.07h-1a.07.07 0 0 1-.06-.07ZM519 244.3l-.61.85a.06.06 0 0 1-.06 0s-.05 0-.06 0l-.62-.85v1.58a.07.07 0 0 1-.06.07.07.07 0 0 1-.07-.07v-1.78a.08.08 0 0 1 .1 0l.68.95.68-.95a.07.07 0 0 1 .09 0v1.78a.07.07 0 0 1-.06.07.07.07 0 0 1-.07-.07ZM519.84 244.09a.07.07 0 0 1 .07-.07h.43a.49.49 0 0 1 .48.49.48.48 0 0 1-.19.37.55.55 0 0 1-.17 1.07h-.55a.07.07 0 0 1-.07-.07Zm.5.76a.34.34 0 0 0 .34-.34.34.34 0 0 0-.34-.35H520v.69Zm.12 1a.41.41 0 0 0 .41-.41.41.41 0 0 0-.41-.42H520v.83ZM521.47 244.09a.07.07 0 0 1 .07-.07h1a.07.07 0 0 1 0 .14h-.92v.76h.8a.07.07 0 0 1 .07.07.07.07 0 0 1-.07.06h-.8v.76h.92a.07.07 0 0 1 0 .14h-1a.07.07 0 0 1-.06-.07ZM524.11 245.51a.35.35 0 0 0-.16-.29.46.46 0 0 0-.22-.09h-.48v.76a.07.07 0 0 1-.14 0v-1.79a.09.09 0 0 1 .06-.07h.55a.55.55 0 0 1 .23 1 .47.47 0 0 1 .26.42.6.6 0 0 0 0 .23.09.09 0 0 1 .08.05.07.07 0 0 1 0 .08.16.16 0 0 1-.12-.09.7.7 0 0 1-.06-.21m-.39-1.35h-.47v.84h.48a.42.42 0 0 0 .41-.42.41.41 0 0 0-.42-.42M226.83 154.73h-3.5l-.68 1.81a.27.27 0 0 1-.25.18h-.1a.27.27 0 0 1-.15-.35l2.66-7.11a.3.3 0 0 1 .26-.16.26.26 0 0 1 .27.16l2.66 7.11a.26.26 0 0 1-.14.35h-.1a.28.28 0 0 1-.25-.18Zm-3.3-.53h3.1l-1.54-4.13ZM230.27 150.17v6.28a.26.26 0 1 1-.52 0v-7a.28.28 0 0 1 .1-.3.26.26 0 0 1 .37.07l4.65 6.44v-6.25a.27.27 0 0 1 .53 0v7.07a.27.27 0 0 1-.27.27.28.28 0 0 1-.21-.1.1.1 0 0 1 0-.05ZM238.37 150.17v6.28a.27.27 0 1 1-.53 0v-7a.28.28 0 0 1 .1-.3.26.26 0 0 1 .37.07l4.65 6.44v-6.25a.26.26 0 0 1 .26-.26.27.27 0 0 1 .28.26v7.07a.27.27 0 0 1-.28.27.26.26 0 0 1-.2-.1s0 0-.05-.05ZM245.73 149.31a.27.27 0 0 1 .27-.31.28.28 0 0 1 .28.27v4.3a2.57 2.57 0 1 0 5.13 0v-4.3a.27.27 0 1 1 .53 0v4.3a3.1 3.1 0 1 1-6.2 0ZM258.29 154.73h-3.49l-.68 1.81a.28.28 0 0 1-.25.18h-.1a.28.28 0 0 1-.16-.35l2.67-7.11a.28.28 0 0 1 .26-.16.26.26 0 0 1 .26.16l2.67 7.11a.27.27 0 0 1-.15.35h-.09a.3.3 0 0 1-.26-.18Zm-3.29-.53h3.1l-1.55-4.13ZM261.47 156.72a.27.27 0 0 1-.26-.27v-7.14a.27.27 0 0 1 .26-.27.27.27 0 0 1 .28.27v6.87h3.67a.27.27 0 0 1 0 .54ZM270.3 155.28a.23.23 0 0 1 .34 0 4.17 4.17 0 0 0 2.52 1 2.84 2.84 0 0 0 1.68-.5 1.41 1.41 0 0 0 .66-1.14 1.22 1.22 0 0 0-.62-1.05 5.1 5.1 0 0 0-1.78-.63 5 5 0 0 1-1.81-.64 1.6 1.6 0 0 1-.79-1.34 1.8 1.8 0 0 1 .8-1.44 3.15 3.15 0 0 1 1.85-.56 4.27 4.27 0 0 1 2.37.89.25.25 0 0 1 .07.34.24.24 0 0 1-.33.07 3.76 3.76 0 0 0-2.11-.81 2.67 2.67 0 0 0-1.56.46 1.31 1.31 0 0 0-.61 1.05 1.12 1.12 0 0 0 .57.93 4.6 4.6 0 0 0 1.65.58 5.15 5.15 0 0 1 1.95.7 1.73 1.73 0 0 1 .85 1.45 1.94 1.94 0 0 1-.87 1.53 3.34 3.34 0 0 1-2 .61 4.78 4.78 0 0 1-2.83-1.11.25.25 0 0 1 0-.39M279.78 149.58h-2.31a.27.27 0 1 1 0-.54h5.15a.27.27 0 0 1 0 .54h-2.31v6.87a.27.27 0 1 1-.53 0ZM288.06 154.73h-3.5l-.68 1.81a.27.27 0 0 1-.25.18h-.1a.27.27 0 0 1-.15-.35l2.66-7.11a.3.3 0 0 1 .27-.16.26.26 0 0 1 .26.16l2.66 7.11a.26.26 0 0 1-.14.35h-.1a.28.28 0 0 1-.25-.18Zm-3.3-.53h3.1l-1.54-4.13ZM291.83 149.58h-2.31a.27.27 0 0 1 0-.54h5.15a.27.27 0 1 1 0 .54h-2.31v6.87a.27.27 0 1 1-.53 0ZM296.44 155.28a.23.23 0 0 1 .34 0 4.2 4.2 0 0 0 2.52 1 2.87 2.87 0 0 0 1.69-.5 1.41 1.41 0 0 0 .66-1.14 1.21 1.21 0 0 0-.63-1.05 5 5 0 0 0-1.77-.63 4.9 4.9 0 0 1-1.81-.64 1.6 1.6 0 0 1-.79-1.34 1.8 1.8 0 0 1 .8-1.44 3.15 3.15 0 0 1 1.85-.56 4.27 4.27 0 0 1 2.37.89.24.24 0 0 1 .06.34.24.24 0 0 1-.33.07 3.76 3.76 0 0 0-2.1-.81 2.73 2.73 0 0 0-1.57.46 1.32 1.32 0 0 0-.6 1.05 1.12 1.12 0 0 0 .57.93 4.5 4.5 0 0 0 1.64.58 5.3 5.3 0 0 1 1.95.7 1.74 1.74 0 0 1 .84 1.45 1.93 1.93 0 0 1-.86 1.53 3.35 3.35 0 0 1-2 .61 4.84 4.84 0 0 1-2.83-1.11.26.26 0 0 1 0-.39" style="fill:#dbdbdb"/><path d="M221.49 252.93h47.25v22.27h-47.25z" style="fill:#7e57c2"/><path d="M221.49 252.93h22.65v22.27h-22.65z" style="fill:#ebebeb"/><path d="M240.84 264.07a8 8 0 1 1-1.06-4 8 8 0 0 1 1.06 4" style="fill:#263238"/><path d="m239.78 260.08-7 4v-8a8 8 0 0 1 7 4" style="fill:#7e57c2"/><path d="M238.36 264.07a5.55 5.55 0 1 1-5.54-5.55 5.54 5.54 0 0 1 5.54 5.55" style="fill:#fff"/><path d="m230.86 263.39-.27.16a.06.06 0 0 1-.06 0s0-.08 0-.09l.37-.23a.08.08 0 0 1 .1 0s0 0 0 .05v1.76s0 .07-.06.07a.07.07 0 0 1-.07-.07ZM231.51 264.93a.07.07 0 0 1 .1-.1.51.51 0 0 0 .87-.36.55.55 0 0 0-.14-.37.53.53 0 0 0-.34-.1.5.5 0 0 0-.36.15.07.07 0 0 1-.1 0l.1-.77a.1.1 0 0 1 0-.05h.89a.07.07 0 1 1 0 .14h-.84l-.06.57a.7.7 0 0 1 .32-.08.65.65 0 0 1 .46.18.66.66 0 0 1 0 .93.68.68 0 0 1-.46.19.66.66 0 0 1-.44-.33M233.13 263.67a.42.42 0 1 1 .84 0 .46.46 0 0 1-.42.5.45.45 0 0 1-.42-.5m.7 0a.33.33 0 0 0-.28-.37c-.17 0-.28.17-.28.37 0 .22.13.38.28.38s.28-.17.28-.38m-.44 1.37 1.34-1.83a.05.05 0 0 1 .05 0 .06.06 0 0 1 .06.06l-1.34 1.82h-.05a.06.06 0 0 1-.06-.06V265Zm.85-.39a.43.43 0 1 1 .85 0 .43.43 0 1 1-.85 0m.7 0c0-.22-.12-.38-.28-.38s-.28.17-.28.37a.33.33 0 0 0 .29.37c.16-.01.27-.15.27-.36" style="fill:#263238"/><path d="M237.94 258.25h9.02v.46h-9.02z" style="fill:#fff"/><path d="M247.91 258.48a1 1 0 1 1-1-1 1 1 0 0 1 1 1M252.93 257.64a2.4 2.4 0 0 1 .16 1.49 3.3 3.3 0 0 1-.68 1.49 1.73 1.73 0 0 1-1.28.69 1.12 1.12 0 0 1-1-.69 2.42 2.42 0 0 1-.16-1.49 3.15 3.15 0 0 1 .68-1.49 1.76 1.76 0 0 1 1.28-.7 1.14 1.14 0 0 1 1 .7m-.53 1.49a1.78 1.78 0 0 0-.11-1.11.56.56 0 0 0-.51-.38.87.87 0 0 0-.66.38 2.5 2.5 0 0 0-.49 1.11 1.82 1.82 0 0 0 .11 1.1.59.59 0 0 0 .51.39.92.92 0 0 0 .65-.39 2.34 2.34 0 0 0 .5-1.1M255.61 257.27 255 261a.43.43 0 0 1-.41.34.28.28 0 0 1-.28-.34l.54-3.08-.27.15a.4.4 0 0 1-.19 0 .28.28 0 0 1-.27-.17.4.4 0 0 1 .21-.47l.85-.46h.29v.16ZM249.43 263.22h13.88v.71h-13.88zM249.43 264.98h11.6v.71h-11.6zM249.43 266.74h16.26v.71h-16.26zM249.43 268.51h6.94v.71h-6.94zM249.43 270.27h13.88v.71h-13.88z" style="fill:#fff"/><path d="M279.37 252.93h47.25v22.27h-47.25z" style="fill:#7e57c2"/><path d="M279.37 252.93h22.65v22.27h-22.65z" style="fill:#ebebeb"/><path d="M298.71 264.07a7.6 7.6 0 0 1-.09 1.17 8 8 0 1 1-1-5.16 7.93 7.93 0 0 1 1.09 3.99" style="fill:#263238"/><path d="M298.71 264.07a7.6 7.6 0 0 1-.09 1.17l-7.93-1.17v-8a8 8 0 0 1 7 4 7.93 7.93 0 0 1 1.02 4" style="fill:#7e57c2"/><path d="M296.24 264.07a5.55 5.55 0 1 1-5.55-5.55 5.54 5.54 0 0 1 5.55 5.55" style="fill:#fff"/><path d="m288.07 265 .9-.81a.5.5 0 0 0 .17-.37.5.5 0 0 0-.13-.33.5.5 0 0 0-.37-.16.46.46 0 0 0-.33.13l-.1.08a.06.06 0 0 1-.09 0 .08.08 0 0 1 0-.1l.1-.08a.63.63 0 0 1 .42-.17.6.6 0 0 1 .46.21.58.58 0 0 1 .17.42.64.64 0 0 1-.21.47l-.77.69h.91a.07.07 0 0 1 0 .14h-1.1300000000000001a.09.09 0 0 1 0-.12M289.74 264.93a.07.07 0 1 1 .1-.1.51.51 0 0 0 .87-.36.5.5 0 0 0-.15-.37.51.51 0 0 0-.72 0 .07.07 0 0 1-.1 0l.09-.77a.05.05 0 0 1 0-.05h.9a.07.07 0 1 1 0 .14h-.84l-.07.57a.8.8 0 0 1 .33-.08.67.67 0 0 1 .46.18.66.66 0 0 1 0 .93.7.7 0 0 1-.46.19.66.66 0 0 1-.41-.28M291.35 263.67a.43.43 0 1 1 .85 0 .46.46 0 0 1-.43.5.45.45 0 0 1-.42-.5m.71 0a.33.33 0 0 0-.29-.37c-.16 0-.27.17-.27.37 0 .22.13.38.28.38s.28-.17.28-.38m-.45 1.37 1.34-1.83a.07.07 0 0 1 .06 0 .06.06 0 0 1 .06.06l-1.33 1.82a.07.07 0 0 1-.06 0 .06.06 0 0 1-.06-.06Zm.86-.39a.43.43 0 1 1 .85 0 .46.46 0 0 1-.43.49.45.45 0 0 1-.42-.49m.7 0c0-.22-.13-.38-.28-.38s-.28.17-.28.37a.33.33 0 0 0 .28.37c.17-.01.28-.15.28-.36" style="fill:#263238"/><path d="M295.81 258.25h9.02v.46h-9.02z" style="fill:#fff"/><path d="M305.79 258.48a1 1 0 1 1-1-1 1 1 0 0 1 1 1M310.81 257.64a2.5 2.5 0 0 1 .16 1.49 3.3 3.3 0 0 1-.68 1.49 1.74 1.74 0 0 1-1.28.69 1.14 1.14 0 0 1-1-.69 2.43 2.43 0 0 1-.15-1.49 3.15 3.15 0 0 1 .68-1.49 1.74 1.74 0 0 1 1.27-.7 1.14 1.14 0 0 1 1 .7m-.53 1.49a1.93 1.93 0 0 0-.11-1.11.56.56 0 0 0-.51-.38.87.87 0 0 0-.66.38 2.37 2.37 0 0 0-.49 1.11 1.83 1.83 0 0 0 .1 1.1.6.6 0 0 0 .52.39.92.92 0 0 0 .65-.39 2.34 2.34 0 0 0 .5-1.1M314.92 261a.44.44 0 0 1-.41.34h-2.22a.25.25 0 0 1-.23-.11.36.36 0 0 1 .1-.49l2.14-1.66a1 1 0 0 0 .37-.6.66.66 0 0 0-.66-.81.94.94 0 0 0-.58.21l-.23.17a.33.33 0 0 1-.48 0 .38.38 0 0 1 .11-.49l.22-.17a1.77 1.77 0 0 1 1.08-.39 1.26 1.26 0 0 1 1 .49 1.33 1.33 0 0 1 .21 1 1.86 1.86 0 0 1-.69 1.11l-1.36 1.06h1.32a.29.29 0 0 1 .31.34M307.31 263.22h13.38v.71h-13.38zM307.31 264.98h7.68v.71h-7.68zM307.31 266.74h12.39v.71h-12.39zM307.31 268.51h16.26v.71h-16.26zM307.31 270.27h9.43v.71h-9.43z" style="fill:#fff"/><path d="M337.25 252.93h47.25v22.27h-47.25z" style="fill:#7e57c2"/><path d="M337.25 252.93h22.65v22.27h-22.65z" style="fill:#ebebeb"/><path d="M356.59 264.07a8 8 0 0 1-5.14 7.48 7.9 7.9 0 0 1-2.88.54 8 8 0 1 1 7-12 7.93 7.93 0 0 1 1.02 3.98" style="fill:#263238"/><path d="M356.59 264.07a8 8 0 0 1-5.14 7.48l-2.88-7.48v-8a8 8 0 0 1 7 4 7.93 7.93 0 0 1 1.02 4" style="fill:#7e57c2"/><path d="M354.12 264.07a5.55 5.55 0 1 1-5.55-5.55 5.55 5.55 0 0 1 5.55 5.55" style="fill:#fff"/><path d="M347 264.72h-1.09a.07.07 0 0 1 0-.1l1.11-1.38h.09v1.32h.13a.07.07 0 0 1 .07.07.07.07 0 0 1-.07.06h-.13v.33a.07.07 0 0 1-.07.07.08.08 0 0 1-.07-.07Zm0-.13v-1.13l-.9 1.13ZM347.72 264.93a.07.07 0 0 1 0-.1.06.06 0 0 1 .09 0 .55.55 0 0 0 .37.15.51.51 0 0 0 .51-.51.5.5 0 0 0-.15-.37.5.5 0 0 0-.36-.15.55.55 0 0 0-.37.15.06.06 0 0 1-.09 0l.09-.77a.05.05 0 0 1 0-.05h.9a.07.07 0 0 1 0 .14h-.84l-.07.57a.7.7 0 0 1 .33-.08.67.67 0 0 1 .46.18.66.66 0 0 1 0 .93.7.7 0 0 1-.46.19.66.66 0 0 1-.41-.28M349.33 263.67a.43.43 0 1 1 .85 0 .46.46 0 0 1-.43.5.45.45 0 0 1-.42-.5m.71 0a.33.33 0 0 0-.29-.37c-.16 0-.27.17-.27.37 0 .22.12.38.28.38s.24-.17.24-.38Zm-.45 1.37 1.34-1.83h.05a.06.06 0 0 1 .06.06l-1.33 1.82a.07.07 0 0 1-.06 0 .06.06 0 0 1-.06-.06Zm.86-.39a.45.45 0 0 1 .42-.49.44.44 0 0 1 .42.48.43.43 0 1 1-.84 0Zm.7 0c0-.22-.13-.38-.28-.38s-.28.17-.28.37a.33.33 0 0 0 .28.37c.13-.01.28-.15.28-.36" style="fill:#263238"/><path d="M353.69 258.25h9.02v.46h-9.02z" style="fill:#fff"/><circle cx="362.71" cy="258.48" r=".96" style="fill:#fff"/><path d="M368.69 257.64a2.42 2.42 0 0 1 .15 1.49 3.2 3.2 0 0 1-.68 1.49 1.72 1.72 0 0 1-1.27.69 1.13 1.13 0 0 1-1-.69 2.5 2.5 0 0 1-.16-1.49 3.25 3.25 0 0 1 .68-1.49 1.77 1.77 0 0 1 1.28-.7 1.15 1.15 0 0 1 1 .7m-.53 1.49a1.93 1.93 0 0 0-.11-1.11c-.14-.27-.32-.39-.52-.38a.87.87 0 0 0-.65.38 2.37 2.37 0 0 0-.49 1.11 1.83 1.83 0 0 0 .1 1.1.59.59 0 0 0 .51.39.92.92 0 0 0 .66-.39 2.44 2.44 0 0 0 .5-1.1M372.69 258.66a1.32 1.32 0 0 1 .26 1.09 1.92 1.92 0 0 1-.65 1.1 1.84 1.84 0 0 1-1.18.45 1.29 1.29 0 0 1-1-.45.37.37 0 0 1 .09-.5.35.35 0 0 1 .5 0 .69.69 0 0 0 .55.24 1 1 0 0 0 .64-.24 1.07 1.07 0 0 0 .35-.6.72.72 0 0 0-.14-.59.67.67 0 0 0-.55-.25.3.3 0 0 1-.24-.11.36.36 0 0 1 .08-.5l.74-.65h-1a.28.28 0 0 1-.29-.35.43.43 0 0 1 .42-.35h1.83a.28.28 0 0 1 .29.35.36.36 0 0 1-.07.17.3.3 0 0 1-.08.08l-.93.81a1.3 1.3 0 0 1 .38.3M365.19 263.22h12.78v.71h-12.78zM365.19 264.98h16.26v.71h-16.26zM365.19 266.74h9.77v.71h-9.77zM365.19 268.51h14.2v.71h-14.2zM365.19 270.27h5.74v.71h-5.74z" style="fill:#fff"/><path d="M395.12 252.93h47.25v22.27h-47.25z" style="fill:#7e57c2"/><path d="M395.12 252.93h22.65v22.27h-22.65z" style="fill:#ebebeb"/><path d="M414.47 264.07a8 8 0 1 1-1.06-4 8 8 0 0 1 1.06 4" style="fill:#263238"/><path d="M414.47 264.07a8 8 0 0 1-13.23 6.09l5.21-6.09v-8a8 8 0 0 1 8 8Z" style="fill:#7e57c2"/><path d="M412 264.07a5.55 5.55 0 1 1-5.54-5.55 5.54 5.54 0 0 1 5.54 5.55" style="fill:#fff"/><path d="M403.85 264.93a.09.09 0 0 1 0-.1.07.07 0 0 1 .1 0 .5.5 0 0 0 .36.15.5.5 0 0 0 .37-.15.5.5 0 0 0 .15-.36.5.5 0 0 0-.15-.37.5.5 0 0 0-.36-.15.5.5 0 0 0-.37.15.06.06 0 0 1-.09 0l.09-.77a.05.05 0 0 1 0-.05h.9a.07.07 0 1 1 0 .14h-.84l-.07.57a.7.7 0 0 1 .33-.08.67.67 0 0 1 .46.18.66.66 0 0 1 0 .93.66.66 0 0 1-.93 0ZM405.51 264.93a.07.07 0 0 1 .1-.1.5.5 0 0 0 .36.15.53.53 0 0 0 .37-.15.5.5 0 0 0 .15-.36.5.5 0 0 0-.15-.37.5.5 0 0 0-.34-.1.5.5 0 0 0-.37.15.07.07 0 0 1-.1 0l.09-.77a.05.05 0 0 1 0-.05h.9a.07.07 0 0 1 0 .14h-.84l-.07.57a.7.7 0 0 1 .33-.08.66.66 0 0 1 .46 1.11.66.66 0 0 1-.93 0ZM407.13 263.67a.43.43 0 1 1 .85 0 .46.46 0 0 1-.43.5.45.45 0 0 1-.42-.5m.7 0a.33.33 0 0 0-.28-.37c-.16 0-.28.17-.28.37 0 .22.13.38.29.38s.27-.17.27-.38m-.44 1.37 1.34-1.83a.06.06 0 0 1 .06.06l-1.34 1.82a.05.05 0 0 1-.05 0 .06.06 0 0 1-.06-.06l.05-.03Zm.86-.39a.42.42 0 1 1 .84 0 .45.45 0 0 1-.42.49.45.45 0 0 1-.42-.49m.7 0c0-.22-.13-.38-.28-.38s-.28.17-.28.37a.33.33 0 0 0 .28.37.36.36 0 0 0 .33-.36Z" style="fill:#263238"/><path d="M411.57 258.25h9.02v.46h-9.02z" style="fill:#fff"/><path d="M421.55 258.48a1 1 0 1 1-1-1 1 1 0 0 1 1 1M426.57 257.64a2.5 2.5 0 0 1 .15 1.49 3.2 3.2 0 0 1-.68 1.49 1.73 1.73 0 0 1-1.28.69 1.13 1.13 0 0 1-1-.69 2.42 2.42 0 0 1-.16-1.49 3.25 3.25 0 0 1 .68-1.49 1.76 1.76 0 0 1 1.28-.7 1.15 1.15 0 0 1 1.01.7m-.53 1.49a1.84 1.84 0 0 0-.12-1.11.56.56 0 0 0-.51-.38.87.87 0 0 0-.65.38 2.27 2.27 0 0 0-.49 1.11 1.75 1.75 0 0 0 .1 1.1.59.59 0 0 0 .51.39.92.92 0 0 0 .66-.39 2.55 2.55 0 0 0 .46-1.1ZM431.23 260.16a.42.42 0 0 1-.4.34h-.06l-.08.47a.44.44 0 0 1-.41.34.28.28 0 0 1-.28-.31l.09-.47h-2a.24.24 0 0 1-.2-.08.34.34 0 0 1 0-.48l2.81-2.86h.26v.06l-.44 2.52h.48a.28.28 0 0 1 .23.47m-1-.35.27-1.54-1.5 1.54ZM423.07 263.22h10.44v.71h-10.44zM423.07 264.98h16.26v.71h-16.26zM423.07 266.74h7.41v.71h-7.41zM423.07 268.51h13.28v.71h-13.28zM423.07 270.27h11.76v.71h-11.76z" style="fill:#fff"/><path d="M227.97 295.33h8.04v40.88h-8.04z" style="fill:#7e57c2"/><path d="M233.63 295.33h2.38v40.88h-2.38z" style="fill:#263238;opacity:.1"/><path d="M241.8 302.13h8.04v34.09h-8.04z" style="fill:#7e57c2"/><path d="M247.46 302.13h2.38v34.09h-2.38z" style="fill:#263238;opacity:.1"/><path d="M255.63 314.52h8.04v21.69h-8.04z" style="fill:#7e57c2"/><path d="M261.29 314.52h2.38v21.69h-2.38z" style="fill:#263238;opacity:.1"/><path d="M269.45 319.06h8.04v17.16h-8.04z" style="fill:#7e57c2"/><path d="M275.11 319.06h2.38v17.16h-2.38z" style="fill:#263238;opacity:.1"/><path d="M283.28 307.23h8.04v28.99h-8.04z" style="fill:#7e57c2"/><path d="M288.94 307.23h2.38v28.99h-2.38z" style="fill:#263238;opacity:.1"/><path d="M297.11 294.54h8.04v41.67h-8.04z" style="fill:#7e57c2"/><path d="M302.77 294.54h2.38v41.67h-2.38z" style="fill:#263238;opacity:.1"/><path d="M310.97 290.21h8.04v46.01h-8.04z" style="fill:#7e57c2"/><path d="M316.63 290.21h2.38v46.01h-2.38z" style="fill:#263238;opacity:.1"/><path d="M324.84 287.07h8.04v49.15h-8.04z" style="fill:#7e57c2"/><path d="M330.5 287.07h2.38v49.15h-2.38z" style="fill:#263238;opacity:.1"/><path d="m223.31 286.8.09 12.35v12.35l.06 24.71-.2-.2c19.54-.06 39.08 0 58.62 0h29.31l29.31.12-29.31.12-29.31.05c-19.54 0-39.08.09-58.62 0h-.21v-.21l.07-24.71v-12.35Z" style="fill:#ebebeb"/><path d="M221.53 289.63a6.8 6.8 0 0 1 1.78-.23 6.3 6.3 0 0 1 1.77.23 6.3 6.3 0 0 1-1.77.23 6.4 6.4 0 0 1-1.78-.23M221.53 294.54a6.4 6.4 0 0 1 1.78-.23 6.3 6.3 0 0 1 1.77.23 6.3 6.3 0 0 1-1.77.23 6.4 6.4 0 0 1-1.78-.23M221.53 299.44a6.4 6.4 0 0 1 1.78-.23 6.3 6.3 0 0 1 1.77.23 6.3 6.3 0 0 1-1.77.23 6.4 6.4 0 0 1-1.78-.23M221.53 304.35a6.4 6.4 0 0 1 1.78-.23 6 6 0 0 1 1.77.23 6.3 6.3 0 0 1-1.77.22 6.8 6.8 0 0 1-1.78-.22M221.53 309.25a6.4 6.4 0 0 1 1.78-.23 6.3 6.3 0 0 1 1.77.23 6.3 6.3 0 0 1-1.77.23 6.4 6.4 0 0 1-1.78-.23M221.53 314.15a6.8 6.8 0 0 1 1.78-.23 6.3 6.3 0 0 1 1.77.23 6.3 6.3 0 0 1-1.77.23 6.4 6.4 0 0 1-1.78-.23M221.53 319.06a6.4 6.4 0 0 1 1.78-.23 6.3 6.3 0 0 1 1.77.23 6.3 6.3 0 0 1-1.77.23 6.8 6.8 0 0 1-1.78-.23M221.53 324a6.4 6.4 0 0 1 1.78-.23 6.3 6.3 0 0 1 1.77.23 6.3 6.3 0 0 1-1.77.23 6.4 6.4 0 0 1-1.78-.23M221.53 328.86a6.8 6.8 0 0 1 1.78-.22 6.3 6.3 0 0 1 1.77.22 6 6 0 0 1-1.77.23 6.4 6.4 0 0 1-1.78-.23" style="fill:#ebebeb"/><path d="M223.31 295.58a31.2 31.2 0 0 1 8-.07 26.1 26.1 0 0 1 7.7 2.06 19.8 19.8 0 0 1 3.47 2 26 26 0 0 1 3 2.64c1.9 1.86 3.72 3.81 5.55 5.73a60 60 0 0 0 5.76 5.44 22.6 22.6 0 0 0 6.83 3.81 29.7 29.7 0 0 0 7.73 1.44 34 34 0 0 0 3.93 0c.64-.06 1.28-.2 1.92-.31s1.27-.31 1.87-.56a31.5 31.5 0 0 0 7-3.63c2.19-1.46 4.29-3.09 6.35-4.76 4.11-3.35 8.08-6.9 12.27-10.18a76 76 0 0 1 13.37-8.7 35 35 0 0 1 15.4-3.71 35 35 0 0 0-15.25 4 74.6 74.6 0 0 0-13.21 8.85c-4.13 3.33-8.1 6.86-12.21 10.24-2.06 1.69-4.16 3.33-6.38 4.83a32.4 32.4 0 0 1-7.11 3.73c-.63.25-1.3.37-1.95.57a20 20 0 0 1-2 .31 34 34 0 0 1-4 0 30.3 30.3 0 0 1-7.89-1.5 23 23 0 0 1-7-3.94 55 55 0 0 1-5.77-5.54c-1.82-1.95-3.61-3.91-5.48-5.79a23.6 23.6 0 0 0-2.94-2.63 20 20 0 0 0-3.38-2 29.33 29.33 0 0 0-15.58-2.33" style="fill:#37474f"/><path d="M226.86 295.51a1.78 1.78 0 1 1-1.78-1.77 1.78 1.78 0 0 1 1.78 1.77" style="fill:#fff"/><path d="M225.08 297.52a2 2 0 1 1 2-2 2 2 0 0 1-2 2m0-3.55a1.55 1.55 0 1 0 1.55 1.54 1.55 1.55 0 0 0-1.55-1.51Z" style="fill:#37474f"/><path d="M278.08 319.06a1.78 1.78 0 1 1-1.77-1.78 1.77 1.77 0 0 1 1.77 1.78" style="fill:#fff"/><path d="M276.3 321.06a2 2 0 1 1 2-2 2 2 0 0 1-2 2m0-3.55a1.55 1.55 0 1 0 1.55 1.55 1.54 1.54 0 0 0-1.55-1.55" style="fill:#37474f"/><path d="M334.66 286.8a1.78 1.78 0 1 1-1.78-1.78 1.78 1.78 0 0 1 1.78 1.78" style="fill:#fff"/><path d="M332.88 288.8a2 2 0 1 1 2-2 2 2 0 0 1-2 2m0-3.55a1.55 1.55 0 1 0 1.55 1.55 1.54 1.54 0 0 0-1.55-1.55" style="fill:#37474f"/><path d="M372 296.05a.26.26 0 0 1-.24-.26v-7.15a.26.26 0 0 1 .26-.26h1.44a3.84 3.84 0 0 1 0 7.67Zm1.42-.54a3.3 3.3 0 1 0 0-6.6h-1.16v6.6ZM383.05 294.06h-3.5l-.68 1.81a.27.27 0 0 1-.25.18h-.1a.28.28 0 0 1-.15-.35l2.66-7.12a.3.3 0 0 1 .27-.16.26.26 0 0 1 .26.16l2.66 7.12a.27.27 0 0 1-.14.35H384a.28.28 0 0 1-.25-.18Zm-3.3-.53h3.1l-1.54-4.12ZM387.22 292.36l-2.58-3.51a.3.3 0 0 1 .06-.38.26.26 0 0 1 .37 0l2.4 3.3 2.41-3.3a.26.26 0 0 1 .37 0 .26.26 0 0 1 .06.38l-2.57 3.49v3.45a.26.26 0 0 1-.26.26.26.26 0 0 1-.26-.26Z" style="fill:#dbdbdb"/><path d="m375.64 309-3.53 2.76h3.53a.27.27 0 0 1 0 .54h-4.31a.24.24 0 0 1-.22-.11.26.26 0 0 1 .05-.37l4.15-3.24a2.43 2.43 0 0 0 1-1.84 1.64 1.64 0 0 0-.29-.95 1.57 1.57 0 0 0-1.32-.62 2.42 2.42 0 0 0-1.45.51l-.42.35a.27.27 0 1 1-.34-.43l.43-.34a3 3 0 0 1 1.78-.63 2.08 2.08 0 0 1 2.15 2.11 3 3 0 0 1-1.21 2.26M380 304.9l-.77 4.38 5.45-4.64a.28.28 0 0 1 .37 0 .26.26 0 0 1 0 .38l-3.49 3 2.47 3.81a.28.28 0 0 1-.08.38.4.4 0 0 1-.14 0 .25.25 0 0 1-.23-.12l-2.43-3.76-2 1.73-.45 1.94a.26.26 0 0 1-.27.22.27.27 0 0 1-.22-.31l1.26-7.13a.26.26 0 0 1 .31-.22.27.27 0 0 1 .22.34" style="fill:#263238"/><path d="m370.7 327.58-.33-.6 4.26-2.35 3.67 1.14 6.83-4.87 7.5 4.31 9.3-6.57.4.56-9.66 6.82-7.5-4.31-6.75 4.81-3.72-1.14z" style="fill:#7e57c2"/><path d="m402.48 319.93.85-1.87-2.04.19z" style="fill:#7e57c2"/><path d="M370.54 328.83h32.15v.46h-32.15zM370.54 331.06h7.5v.46h-7.5z" style="fill:#ebebeb"/><path d="M359.11 288.33h.8v47.88h-.8zM429.62 288.57l2.74 6.53 1.95-4.62a.28.28 0 0 1 .25-.16.32.32 0 0 1 .28.16l1.94 4.62 2.74-6.53a.27.27 0 0 1 .36-.13.26.26 0 0 1 .13.35l-3 7.08a.32.32 0 0 1-.22.18h-.06a.2.2 0 0 1-.13-.05l-.05-.07-1.95-4.63-2 4.63a.1.1 0 0 1 0 .06.13.13 0 0 1-.06.07.2.2 0 0 1-.15.05.25.25 0 0 1-.17-.06.26.26 0 0 1-.06-.13l-3-7a.26.26 0 0 1 .13-.35.27.27 0 0 1 .33 0M441.42 288.64a.26.26 0 0 1 .26-.26h3.95a.27.27 0 0 1 0 .53H442v3h3.21a.27.27 0 0 1 .26.27.27.27 0 0 1-.26.27H442v3h3.67a.26.26 0 0 1 .26.28.26.26 0 0 1-.26.26h-4a.26.26 0 0 1-.24-.26ZM447.92 288.64a.27.27 0 0 1 .27-.26h3.94a.27.27 0 1 1 0 .53h-3.67v3h3.21a.27.27 0 0 1 .26.27.27.27 0 0 1-.26.27h-3.21v3h3.67a.27.27 0 0 1 .27.28.26.26 0 0 1-.27.26h-4a.26.26 0 0 1-.24-.26ZM454.43 288.67a.27.27 0 1 1 .53 0v4.44l4.64-4.64a.29.29 0 0 1 .37 0 .27.27 0 0 1 0 .39L457 291.8l3 3.81a.28.28 0 0 1-.05.38.21.21 0 0 1-.17.06.22.22 0 0 1-.2-.1l-3-3.77-1.58 1.69v1.92a.27.27 0 0 1-.53 0Z" style="fill:#dbdbdb"/><path d="m433.51 309-3.51 2.72h3.53a.28.28 0 0 1 .27.27.27.27 0 0 1-.27.27h-4.33a.25.25 0 0 1-.22-.11.26.26 0 0 1 .06-.37l4.14-3.23a2.44 2.44 0 0 0 1-1.85 1.6 1.6 0 0 0-.3-.95 1.57 1.57 0 0 0-1.32-.62 2.4 2.4 0 0 0-1.44.51l-.43.35a.27.27 0 0 1-.38-.05.28.28 0 0 1 0-.38l.44-.34a2.93 2.93 0 0 1 1.77-.63 2.14 2.14 0 0 1 1.75.84 2.2 2.2 0 0 1 .4 1.27 2.94 2.94 0 0 1-1.16 2.3M441.24 305.08l-2.34 2a2.06 2.06 0 0 1 1.18.7 2.2 2.2 0 0 1 .44 1.84 3.1 3.1 0 0 1-1.09 1.85 3.13 3.13 0 0 1-2 .76 2.16 2.16 0 0 1-1.7-.76.28.28 0 0 1 .07-.39.27.27 0 0 1 .39 0 1.68 1.68 0 0 0 1.34.59 2.53 2.53 0 0 0 2.42-2 1.75 1.75 0 0 0-.34-1.44 1.69 1.69 0 0 0-1.35-.61.23.23 0 0 1-.2-.11.3.3 0 0 1 .07-.39l2.26-2h-2.94a.23.23 0 0 1-.23-.28.34.34 0 0 1 .33-.27h3.58a.25.25 0 0 1 .18.39.24.24 0 0 1-.07.12M444.52 304.9l-.77 4.38 5.45-4.64a.29.29 0 0 1 .38 0 .27.27 0 0 1 0 .38l-3.48 3 2.46 3.82a.26.26 0 0 1-.07.37h-.15a.27.27 0 0 1-.23-.12l-2.43-3.76-2 1.73-.34 1.93a.26.26 0 0 1-.26.22H443a.26.26 0 0 1-.21-.31l1.26-7.13a.26.26 0 0 1 .3-.22.27.27 0 0 1 .17.35" style="fill:#263238"/><path d="m428.69 327.48-.56-.39 4.28-6.14 3.82 1.36 6.82-2.77 7.5 4.1 9.15-3.18.23.64-9.44 3.29-7.49-4.1-6.75 2.75-3.58-1.27z" style="fill:#7e57c2"/><path d="m459.87 321.85 1.34-1.56-2.02-.38z" style="fill:#7e57c2"/><path d="M428.41 328.83h32.16v.46h-32.16zM428.41 331.06h7.5v.46h-7.5z" style="fill:#ebebeb"/><path d="M416.99 288.33h.8v47.88h-.8zM493.37 289.47l-2.46 3.41a.24.24 0 0 1-.21.12.25.25 0 0 1-.23-.12l-2.45-3.4v6.31a.27.27 0 0 1-.54 0v-7.11a.25.25 0 0 1 .11-.21.28.28 0 0 1 .37.07l2.73 3.78 2.72-3.78a.29.29 0 0 1 .38-.07l.07.09a.4.4 0 0 1 0 .14v7.11a.27.27 0 0 1-.27.26.26.26 0 0 1-.26-.26ZM499.58 288.27a3.89 3.89 0 1 1-3.71 3.89 3.78 3.78 0 0 1 3.71-3.89m0 7.24a3.36 3.36 0 1 0-3.17-3.35 3.26 3.26 0 0 0 3.17 3.35M505.81 289.5v6.29a.27.27 0 0 1-.53 0v-7a.26.26 0 0 1 .47-.23l4.65 6.44v-6.24a.27.27 0 0 1 .54 0v7.07a.27.27 0 0 1-.27.26.24.24 0 0 1-.21-.1ZM515.58 288.91h-2.31a.27.27 0 1 1 0-.53h5.15a.27.27 0 0 1 0 .53h-2.31v6.88a.27.27 0 0 1-.53 0ZM525.19 292.47h-4v3.32a.27.27 0 0 1-.54 0v-7.15a.27.27 0 0 1 .54 0V292h4v-3.31a.27.27 0 0 1 .53 0v7.15a.27.27 0 0 1-.53 0Z" style="fill:#dbdbdb"/><path d="M492.66 310.41a.27.27 0 0 1-.28.27h-.56l-.24 1.36a.27.27 0 0 1-.26.22.25.25 0 0 1-.22-.31l.22-1.26h-4.16a.3.3 0 0 1-.19-.07.29.29 0 0 1 0-.39l5.45-5.55h.29000000000000004v.16l-.93 5.24h.47a.27.27 0 0 1 .41.33m-1.29-.26.79-4.49-4.4 4.49ZM500 304.88a.28.28 0 0 1-.28.28h-3.39l-.67 2.24a3 3 0 0 1 1.3-.32 2.21 2.21 0 0 1 1.74.78 2.28 2.28 0 0 1 .49 1.41 3.14 3.14 0 0 1-3.06 3 2.23 2.23 0 0 1-1.73-.77.28.28 0 1 1 .43-.36 1.61 1.61 0 0 0 1.3.59 2.64 2.64 0 0 0 2.51-2.47 1.6 1.6 0 0 0-.37-1.06 1.62 1.62 0 0 0-1.31-.58 2.48 2.48 0 0 0-1.59.62.28.28 0 0 1-.39 0 .3.3 0 0 1-.05-.16.13.13 0 0 1 0-.12l.93-3.12a.23.23 0 0 1 .14-.16.2.2 0 0 1 .14-.05h3.58a.28.28 0 0 1 .28.25M506 306.74v.19a7.55 7.55 0 0 1-1.14 3.39 3.94 3.94 0 0 1-3.15 1.95.27.27 0 0 1-.27-.26.27.27 0 0 1 .26-.27 3.46 3.46 0 0 0 2.72-1.71 6 6 0 0 0 .59-1.17 3 3 0 0 1-2 .8 2.18 2.18 0 0 1-1.56-.61 2.1 2.1 0 0 1-.61-1.52 3 3 0 0 1 0-.44 3.09 3.09 0 0 1 2.94-2.49 2.17 2.17 0 0 1 1.55.61 2.1 2.1 0 0 1 .67 1.53m-.57.35a2 2 0 0 0 0-.35 1.55 1.55 0 0 0-1.63-1.6 2.53 2.53 0 0 0-2.4 2l-.27-.05.27.05a1.5 1.5 0 0 0 0 .35 1.56 1.56 0 0 0 1.64 1.6 2.57 2.57 0 0 0 2.43-2ZM510.16 304.9l-.76 4.38 5.44-4.64a.29.29 0 0 1 .38 0 .27.27 0 0 1 0 .38l-3.48 3 2.46 3.82a.26.26 0 0 1-.07.37h-.15a.27.27 0 0 1-.23-.12l-2.43-3.76-2 1.73-.42 1.94a.26.26 0 0 1-.26.22.26.26 0 0 1-.22-.31l1.26-7.13a.26.26 0 0 1 .3-.22.27.27 0 0 1 .18.34" style="fill:#263238"/><path d="m486.55 327.53-.48-.49 4.27-4.09 3.81 1.02 6.78-1.29 7.46 1.59 9.22-3.74.26.64-9.42 3.81-7.53-1.6-6.8 1.29-3.58-.96z" style="fill:#7e57c2"/><path d="m517.85 321.91 1.26-1.62-2.03-.28z" style="fill:#7e57c2"/><path d="M486.31 328.83h32.16v.46h-32.16zM486.31 331.06h7.5v.46h-7.5z" style="fill:#ebebeb"/><path d="M474.89 288.33h.8v47.88h-.8z" style="fill:#dbdbdb"/><path d="M453 252.48h76.1v22.72H453z" style="fill:#ebebeb"/><path d="M457.04 255.35h68.02v1.96h-68.02z" style="fill:#fff"/><path d="M457.04 255.35h34.77v1.96h-34.77z" style="fill:#7e57c2"/><path d="M457.04 259.1h68.02v1.96h-68.02z" style="fill:#fff"/><path d="M457.04 259.1h62.39v1.96h-62.39z" style="fill:#7e57c2"/><path d="M457.04 262.86h68.02v1.96h-68.02z" style="fill:#fff"/><path d="M457.04 262.86h20.12v1.96h-20.12z" style="fill:#7e57c2"/><path d="M457.04 266.61h68.02v1.96h-68.02z" style="fill:#fff"/><path d="M457.04 266.61h53.45v1.96h-53.45z" style="fill:#7e57c2"/><path d="M457.04 270.37h68.02v1.96h-68.02z" style="fill:#fff"/><path d="M457.04 270.37h39.3v1.96h-39.3zM106.82 275.13c-1.28 5.46-2.63 10.83-2.9 16.42.15.28.12 1.29 0 1 0 .9-1.41.73-1.41-.16 0-.58 0-1.16.06-1.72-3.21-4-7.87-6.51-11.63-10a21.7 21.7 0 0 1-6.38-10.14c-3.12-10.77-.19-22.17-4-32.91-3.24-9.25-9-17.3-14-25.69-5.19-8.87-9-18.19-9.4-28.57-.31-8 .64-18.56 6.7-24.52 6.42-6.32 14.38-1.58 19.3 4.06 14.26 16.36 20.86 37 23.52 58.18 1.47 11.7 3 23.47 2.65 35.28a95 95 0 0 1-2.51 18.77" style="fill:#7e57c2"/><path d="M104 295.85a200.5 200.5 0 0 0-.39-33.15s.06-.07.06-.12c.18-9 .89-17.89.54-26.86a159 159 0 0 0-4-28.8c0-.11-.19-.09-.17 0a189 189 0 0 1 3.12 28.18q.27 7.59-.13 15.18c-.08 1.65-.24 3.31-.34 5a177.2 177.2 0 0 0-26.64-70.58c-.18-.29-.7 0-.52.32a184 184 0 0 1 21.7 52.31C90.38 224.63 80 214.18 72.34 202c0-.07-.15 0-.12.07 6.9 13.59 18.31 24.3 25.57 37.69 1.26 5.46 2.3 11 3.07 16.5a185 185 0 0 1 1.65 22.93c-4.18-7.8-8.51-15.27-11.93-23.52-.09-.22-.4-.07-.33.15 2.91 8.57 6.81 17.81 12.28 25.12 0 5.43-.13 10.86-.45 16.28-.85 14.47-3.32 28.75-4.47 43.18a.34.34 0 0 0 .67.07 333 333 0 0 0 5.72-44.62" style="fill:#263238"/><path d="M88.62 184.24c-.05-.11-.2 0-.17.07 2.65 7.31 4.14 14.72 6 22.21a.28.28 0 0 0 .55-.09c-.73-7.6-3.44-15.18-6.38-22.19" style="fill:#263238"/><path d="M155.74 214.87a109 109 0 0 1-6.08 12.49C144.9 236 139.94 243.93 139 254c-.4 4.5-.55 9-1.92 13.34a40 40 0 0 1-5.31 10.45c-5.16 7.51-11.61 14-16.39 21.79a91.7 91.7 0 0 0-10.89 26.25c-.12.51-.92.37-.8-.13a.3.3 0 0 0 0-.12.2.2 0 0 1 0-.11c-.76-21.58 1-43.33 7.54-64a222 222 0 0 1 10.46-26.63c3.53-7.5 7.92-14.7 14.11-20.3 4-3.62 12.73-10.48 18.45-6.85 2.75 1.74 2.57 4.49 1.49 7.18" style="fill:#7e57c2"/><path d="M134.05 263.8a176 176 0 0 1-12.54 18c-2.09 2.73-4.21 5.43-6.3 8.16-1 1.3-2.09 2.58-3 4 .57-2.27 1.12-4.55 1.7-6.81 2.79-10.91 5.47-21.91 9.61-32.39 4.06-10.25 9.45-19.88 15-29.38.14-.25-.26-.43-.41-.19-4.56 7.5-9.19 15-13 22.9a123 123 0 0 0-5.53 13.58 210 210 0 0 1 7.36-29c0-.09-.09-.15-.13-.06a99.3 99.3 0 0 0-7.64 30.19s0 0 0 .05c-.94 2.8-1.8 5.63-2.6 8.48-3.4 12.08-6.38 24.28-9.15 36.52a130.7 130.7 0 0 1 2.08-24c0-.18-.24-.22-.28-.05a76.2 76.2 0 0 0-2.09 25.3q-1.56 7-3 14c-2.13 9.95-4.73 20.08-6 30.18a.2.2 0 0 0 .4.07c1.48-5.45 2.37-11.09 3.58-16.61s2.47-11.05 3.75-16.56q2.82-12 5.84-24c1.34-2.93 3.92-5.54 5.86-8 2.12-2.7 4.25-5.4 6.32-8.14a121.3 121.3 0 0 0 10.38-16.07c.05-.2-.14-.28-.21-.17" style="fill:#263238"/><path d="M135 254.57a112.6 112.6 0 0 0-12.27 19.5c0 .09.09.18.15.1 4.13-6.48 8.19-13 12.31-19.48.04-.11-.14-.22-.19-.12" style="fill:#263238"/><path d="M43.1 235.34c2.8 4.81 6 10.6 4.79 16.38-.76 3.66-3.44 6.64-3.93 10.37-1.08 8.24 7.13 13.69 13.08 17.59 14.82 9.72 35.14 18.39 37.84 38.24.1.71 1.31.53 1.23-.16a1 1 0 0 0 0-.13s.07-.06.07-.12a75.9 75.9 0 0 0-.28-30.32c-2.21-10.24-6.67-19.43-12-28.42C75 243.55 65.56 228 52.07 216.31c-3.73-3.22-11.37-9-14.35-1.74-2.88 7.08 1.95 14.89 5.38 20.77" style="fill:#7e57c2"/><path d="M56.66 267.59c9.83 10.64 25.45 16.6 33.91 28.52-5-18.26-13.31-34.68-26.06-49a.38.38 0 0 1 .54-.54 96.3 96.3 0 0 1 21.29 30.84A137 137 0 0 0 77.17 254a.25.25 0 0 1 .44-.25 89.2 89.2 0 0 1 9.88 26.36c11.15 27 12.18 58.61 9.84 87.05 0 .41-.65.42-.64 0 .64-22.41.28-45.21-5.09-67.09-.11-.46-.24-.91-.35-1.37-9.2-12.82-24.76-18.77-34.76-30.95-.09-.1.07-.27.17-.16" style="fill:#263238"/><path d="M54.38 258.46c5.16 4.73 10.24 9.57 15.41 14.3 0 .05 0 .14-.08.1a75.7 75.7 0 0 1-15.63-14.09.22.22 0 0 1 .3-.31M53.57 238A161.4 161.4 0 0 0 69 259.18c.08.09 0 .22-.13.13a74.8 74.8 0 0 1-15.58-21.19.16.16 0 0 1 .28-.12" style="fill:#263238"/><path d="M76.79 387.23h45.18l-6.09-60.79H83.75z" style="fill:#455a64"/><path d="M82.62 336.32h34.26l-.99-9.88H83.75z" style="fill:#263238"/><path d="M78.21 319.71h42.35v9.71H78.21z" style="fill:#455a64" transform="rotate(180 99.38 324.56)"/><path d="M478.99 85.37h133.97v78.36H478.99z" style="fill:#ebebeb"/><path d="M478.99 85.37h46.18v78.36h-46.18z" style="fill:#dbdbdb"/><path d="M486.12 96.6a.18.18 0 0 1 .25 0 2.54 2.54 0 0 0 1.67.71 2.3 2.3 0 0 0 1.27-.37 1.21 1.21 0 0 0 .61-.81.68.68 0 0 0-.31-.74 3.1 3.1 0 0 0-1.19-.45 2.9 2.9 0 0 1-1.2-.46.91.91 0 0 1-.39-1 1.6 1.6 0 0 1 .74-1 2.6 2.6 0 0 1 1.39-.39 2.58 2.58 0 0 1 1.59.63.17.17 0 0 1 0 .24.21.21 0 0 1-.26 0 2.27 2.27 0 0 0-1.4-.58 2.2 2.2 0 0 0-1.17.33 1.2 1.2 0 0 0-.56.75.65.65 0 0 0 .28.67 2.85 2.85 0 0 0 1.1.41 3.2 3.2 0 0 1 1.3.5 1 1 0 0 1 .42 1 1.7 1.7 0 0 1-.81 1.09 2.75 2.75 0 0 1-1.49.44 2.82 2.82 0 0 1-1.86-.79.16.16 0 0 1 .02-.18M493.48 93.93a.18.18 0 0 1-.19.19h-1.06l-.52 2.88a.13.13 0 0 0 0 .06.2.2 0 0 0 .22.2.2.2 0 1 1 0 .39.6.6 0 0 1-.61-.59s0-.08 0-.12l.51-2.79h-.51a.19.19 0 0 1-.2-.19.2.2 0 0 1 .2-.2h.58l.25-1.51a.2.2 0 0 1 .23-.16.21.21 0 0 1 .16.22l-.25 1.45h1a.19.19 0 0 1 .19.17M494.48 97.16a1.6 1.6 0 0 1-.43-1.14 1.5 1.5 0 0 1 0-.36 2.3 2.3 0 0 1 2.14-1.91 1.54 1.54 0 0 1 1.12.47 2 2 0 0 1 .23.32l.11-.63a.19.19 0 0 1 .21-.16.19.19 0 0 1 .16.22l-.62 3.5a.18.18 0 0 1-.19.16.19.19 0 0 1-.15-.22l.09-.51a2.17 2.17 0 0 1-1.55.73 1.47 1.47 0 0 1-1.12-.47m-.06-1.16a1.18 1.18 0 0 0 1.18 1.23 1.92 1.92 0 0 0 1.77-1.59 1.5 1.5 0 0 0 0-.3 1.16 1.16 0 0 0-1.17-1.23 1.94 1.94 0 0 0-1.76 1.59 1.6 1.6 0 0 0-.02.3M501.34 93.93a.18.18 0 0 1-.19.19h-1.06l-.52 2.88a.13.13 0 0 0 0 .06.2.2 0 0 0 .22.2.2.2 0 1 1 0 .39.6.6 0 0 1-.61-.59s0-.08 0-.12l.51-2.79h-.51a.19.19 0 0 1-.2-.19.2.2 0 0 1 .2-.2h.58l.25-1.51a.2.2 0 0 1 .23-.16.21.21 0 0 1 .16.22l-.25 1.45h1a.19.19 0 0 1 .19.17M501.59 97.42l.61-3.53a.22.22 0 0 1 .22-.16.21.21 0 0 1 .16.24l-.58 3.51a.19.19 0 0 1-.19.15.19.19 0 0 1-.22-.21m1-4.27a.19.19 0 0 1-.15-.23v-.18a.19.19 0 0 1 .37.07v.18a.2.2 0 0 1-.25.16ZM503.54 96.81a.2.2 0 0 1 .28 0 1.7 1.7 0 0 0 1.08.46 1.6 1.6 0 0 0 .81-.23.76.76 0 0 0 .37-.5.4.4 0 0 0-.19-.43 1.9 1.9 0 0 0-.77-.29 1.9 1.9 0 0 1-.84-.31.7.7 0 0 1-.29-.71 1.23 1.23 0 0 1 .55-.76 1.9 1.9 0 0 1 1-.28 1.77 1.77 0 0 1 1.1.44.18.18 0 0 1 0 .26.2.2 0 0 1-.27.06 1.5 1.5 0 0 0-.91-.38 1.46 1.46 0 0 0-.74.21.75.75 0 0 0-.34.45.38.38 0 0 0 .17.39 1.9 1.9 0 0 0 .71.26 2 2 0 0 1 .91.34.71.71 0 0 1 .3.75 1.2 1.2 0 0 1-.58.8 1.9 1.9 0 0 1-1.05.31 1.94 1.94 0 0 1-1.3-.55.19.19 0 0 1 0-.29M509.78 93.93a.19.19 0 0 1-.2.19h-1.06L508 97a.19.19 0 0 0 .21.2.2.2 0 1 1 0 .39.6.6 0 0 1-.43-.17.6.6 0 0 1-.17-.42v-.12l.51-2.79h-.51a.18.18 0 0 1-.19-.19.19.19 0 0 1 .19-.2h.58l.25-1.51a.2.2 0 0 1 .23-.16.2.2 0 0 1 .16.22l-.25 1.45h1a.2.2 0 0 1 .2.23M510 97.42l.61-3.53a.22.22 0 0 1 .23-.16.21.21 0 0 1 .16.27l-.62 3.51a.19.19 0 0 1-.18.15.19.19 0 0 1-.2-.24m1-4.27a.2.2 0 0 1-.15-.23v-.18a.2.2 0 0 1 .22-.15.18.18 0 0 1 .15.22v.18a.19.19 0 0 1-.22.16M512 95.65a2.4 2.4 0 0 1 2.29-1.92 1.77 1.77 0 0 1 1.19.43.2.2 0 0 1 0 .27.18.18 0 0 1-.26 0 1.38 1.38 0 0 0-.94-.33 2 2 0 0 0-1.92 1.59 1.3 1.3 0 0 0 0 .27 1.25 1.25 0 0 0 1.32 1.26 2 2 0 0 0 1.09-.35.19.19 0 0 1 .23.13.19.19 0 0 1 0 .26 2.4 2.4 0 0 1-1.3.41 1.7 1.7 0 0 1-1.22-.47A1.6 1.6 0 0 1 512 96a1.2 1.2 0 0 1 0-.35M486.8 106.48a2.28 2.28 0 0 1-.69-1.67 2.6 2.6 0 0 1 0-.47 3.44 3.44 0 0 1 3.31-2.75 2.53 2.53 0 0 1 1.69.61.2.2 0 0 1-.27.29 2.1 2.1 0 0 0-1.42-.51 3 3 0 0 0-2.92 2.42 2 2 0 0 0 0 .41 1.92 1.92 0 0 0 2.05 2 3 3 0 0 0 1.58-.48l.28-1.6h-1.47a.19.19 0 0 1-.19-.19.19.19 0 0 1 .19-.2h1.73a.19.19 0 0 1 .16.22l-.33 1.89a.1.1 0 0 1 0 .06.16.16 0 0 1-.06.08 3.34 3.34 0 0 1-1.86.59 2.47 2.47 0 0 1-1.78-.7M492.05 106.94l.31-1.75.31-1.73a.19.19 0 0 1 .22-.16.19.19 0 0 1 .15.22l-.14.79.06-.07a2.23 2.23 0 0 1 1.68-.94.18.18 0 0 1 .19.19.19.19 0 0 1-.19.19 1.75 1.75 0 0 0-1.26.64 4.1 4.1 0 0 0-.63.92l-.31 1.72a.18.18 0 0 1-.19.16.18.18 0 0 1-.2-.18M495.52 106.7a1.68 1.68 0 0 1-.42-1.15 1.3 1.3 0 0 1 0-.35 2.3 2.3 0 0 1 2.14-1.91 1.5 1.5 0 0 1 1.12.47 2.5 2.5 0 0 1 .23.31l.11-.62a.18.18 0 0 1 .21-.16.19.19 0 0 1 .16.22l-.62 3.5a.19.19 0 0 1-.19.16.2.2 0 0 1-.15-.23l.09-.5a2.17 2.17 0 0 1-1.55.73 1.54 1.54 0 0 1-1.13-.47m0-1.15a1.17 1.17 0 0 0 1.18 1.24 1.94 1.94 0 0 0 1.77-1.59v-.3a1.16 1.16 0 0 0-1.17-1.23 1.94 1.94 0 0 0-1.76 1.59 1.5 1.5 0 0 0-.07.29ZM499.56 108.56l.6-3.37.31-1.74a.19.19 0 0 1 .22-.16.19.19 0 0 1 .16.23l-.09.49a2.2 2.2 0 0 1 1.55-.72 1.54 1.54 0 0 1 1.15.47 1.63 1.63 0 0 1 .45 1.15 2 2 0 0 1 0 .34 2.29 2.29 0 0 1-2.15 1.88 1.58 1.58 0 0 1-1.15-.46 1.3 1.3 0 0 1-.24-.31l-.4 2.27a.18.18 0 0 1-.19.16.21.21 0 0 1-.22-.23m1-3.31a1.4 1.4 0 0 0 0 .29 1.16 1.16 0 0 0 1.21 1.21 1.94 1.94 0 0 0 1.77-1.56v-.28a1.17 1.17 0 0 0-1.21-1.23 1.94 1.94 0 0 0-1.79 1.57ZM504.8 107l.91-5.17a.19.19 0 0 1 .23-.16.2.2 0 0 1 .16.22l-.34 2a2 2 0 0 1 1.29-.54 1.4 1.4 0 0 1 1 .4 1.37 1.37 0 0 1 .39 1v.28L508 107a.21.21 0 0 1-.2.16.2.2 0 0 1-.15-.23l.39-2.09v-.21a1 1 0 0 0-1-1 1.59 1.59 0 0 0-1.49 1.27l-.38 2.09H505l-.09-.05a.2.2 0 0 1-.07-.14.06.06 0 0 1-.04.2" style="fill:#263238"/><path d="M532.4 103.31c12.18-.11 24.36-.08 36.54-.13s24.36 0 36.54.13c-12.18.11-24.36.08-36.54.12s-24.36-.01-36.54-.12M532.4 113.54c12.18-.11 24.36-.08 36.54-.12s24.36 0 36.54.12c-12.18.11-24.36.08-36.54.12s-24.36-.01-36.54-.12M532.4 123.77c12.18-.11 24.36-.08 36.54-.12s24.36 0 36.54.12c-12.18.11-24.36.08-36.54.13s-24.36-.02-36.54-.13M532.4 134c12.18-.11 24.36-.08 36.54-.12s24.36 0 36.54.12c-12.18.11-24.36.08-36.54.13s-24.36-.02-36.54-.13M532.4 144.23c12.18-.11 24.36-.08 36.54-.12s24.36 0 36.54.12c-12.18.11-24.36.08-36.54.13s-24.36-.02-36.54-.13" style="fill:#fff"/><path d="M547.11 96.66c.11 9.56.08 19.12.13 28.68s0 19.11-.13 28.67c-.1-9.56-.08-19.12-.12-28.67s.01-19.12.12-28.68M559.75 96.66c.11 9.56.08 19.12.13 28.68s0 19.11-.13 28.67c-.11-9.56-.08-19.12-.12-28.67s.01-19.12.12-28.68M572.39 96.66c.11 9.56.08 19.12.12 28.68s0 19.11-.12 28.67c-.11-9.56-.08-19.12-.13-28.67s.02-19.12.13-28.68M585 96.66c.11 9.56.08 19.12.13 28.68s0 19.11-.13 28.67c-.1-9.56-.08-19.12-.12-28.67s.04-19.12.12-28.68M597.66 96.66c.11 9.56.08 19.12.13 28.68s0 19.11-.13 28.67c-.11-9.56-.08-19.12-.12-28.67s.01-19.12.12-28.68" style="fill:#fff"/><path d="M534.24 136.81c2.23 0 3.56-10.39 6.72-10.39s3.49 7.58 6.15 7.58 2.58-13.32 6.16-13.32 2.74 5.41 6.48 5.41 2.33-12.55 6.24-12.55 2.32 17.29 6.4 17.29c2.57 0 3.57-5.49 6.65-5.49 2 0 3.24 2.74 5.9 2.74s3.24-10.56 6.57-10.56 3.7 6.25 6.15 6.25 3.33-10.23 7.82-10.23V154h-71.24Z" style="fill:#7e57c2;opacity:.5"/><path d="M534.24 137.31v-1c.68 0 1.61-2.43 2.29-4.2 1.17-3 2.37-6.19 4.43-6.19s3 2.3 3.83 4.34c.68 1.59 1.38 3.24 2.32 3.24s1.56-3.2 2.08-5.53c.87-3.83 1.76-7.79 4.08-7.79 2.07 0 2.88 1.56 3.6 2.93s1.29 2.48 2.88 2.48 2-2.93 2.55-5.77c.64-3.33 1.3-6.78 3.69-6.78s3 4.34 3.61 8.94c.52 3.72 1.16 8.35 2.79 8.35 1 0 1.76-1.15 2.6-2.35 1-1.48 2.18-3.14 4-3.14a4.72 4.72 0 0 1 2.84 1.34 5 5 0 0 0 3.06 1.4c.92 0 1.76-2.51 2.44-4.53 1-3 2-6 4.13-6s3.12 2 4 3.75c.67 1.29 1.29 2.5 2.12 2.5s1.5-1.94 2.2-3.66c1.2-2.93 2.7-6.57 5.62-6.57v1c-2.25 0-3.55 3.16-4.69 5.95-1 2.39-1.75 4.28-3.13 4.28s-2.2-1.47-3-3-1.58-3.3-3.07-3.3-2.34 2.84-3.18 5.35c-.94 2.8-1.75 5.21-3.39 5.21a5.88 5.88 0 0 1-3.67-1.61 3.9 3.9 0 0 0-2.23-1.13c-1.35 0-2.3 1.37-3.23 2.71s-1.93 2.78-3.42 2.78c-2.5 0-3.12-4.48-3.78-9.21-.5-3.6-1.13-8.08-2.62-8.08s-2.17 3.17-2.71 6c-.65 3.38-1.27 6.58-3.53 6.58s-3-1.61-3.77-3-1.25-2.39-2.71-2.39-2.4 3.89-3.1 7c-.8 3.52-1.42 6.31-3.06 6.31s-2.4-1.87-3.24-3.85-1.59-3.73-2.91-3.73-2.55 3.08-3.5 5.55c-1.04 2.68-1.85 4.82-3.22 4.82" style="fill:#7e57c2"/><path d="M534.24 97.28c.08 9.46.15 18.91.16 28.37l.08 28.36-.24-.23 35.62.06h17.81l17.81.13-17.81.13-17.81.05-35.62.06H534V154l.08-28.36c.01-9.45.08-18.9.16-28.36" style="fill:#fff"/><path d="M486.09 116.59h4.17v4.17h-4.17z" style="fill:#7e57c2"/><path d="M495.27 116.59h14.79v1.16h-14.79zM495.27 119.6h22.13v1.16h-22.13zM495.27 122.61h16.13v1.16h-16.13z" style="fill:#a6a6a6"/><path d="M82.27 167.32h133.97v78.36H82.27z" style="fill:#ebebeb"/><path d="M82.27 167.32h72.06v78.36H82.27z" style="fill:#dbdbdb"/><path d="M163.3 178.82h4.17v4.17h-4.17z" style="fill:#263238"/><path d="M172.47 178.82h27.75v1.16h-27.75zM172.47 181.83h22.13v1.16h-22.13zM172.47 184.84h14.23V186h-14.23z" style="fill:#a6a6a6"/><path d="M163.3 190.87h4.17v4.17h-4.17z" style="fill:#455a64"/><path d="M172.47 190.87h18.48v1.16h-18.48zM172.47 193.88h30.56v1.16h-30.56zM172.47 196.89h33.81v1.16h-33.81z" style="fill:#a6a6a6"/><path d="M163.3 202.92h4.17v4.17h-4.17z" style="fill:#fff"/><path d="M172.47 202.92h22.13v1.16h-22.13zM172.47 205.93h33.81v1.16h-33.81zM172.47 208.94h12.02v1.16h-12.02z" style="fill:#a6a6a6"/><path d="M163.3 214.97h4.17v4.17h-4.17z" style="fill:#37474f"/><path d="M172.47 214.97h24.71v1.16h-24.71zM172.47 217.98h16.13v1.16h-16.13zM172.47 220.98h33.81v1.16h-33.81z" style="fill:#a6a6a6"/><path d="M163.3 227.01h4.17v4.17h-4.17z" style="fill:#7e57c2"/><path d="M172.47 227.01h29.57v1.16h-29.57zM172.47 230.02h22.13v1.16h-22.13zM172.47 233.03h16.13v1.16h-16.13z" style="fill:#a6a6a6"/><path d="M134.69 217.19c.21-.31.4-.64.59-1a10 10 0 0 1-.58 1ZM135.28 216.22a19.5 19.5 0 0 0 2.09-5.3 18.8 18.8 0 0 1-2.09 5.3M145.91 208.61v.43a3 3 0 0 0 0-.43" style="fill:#455a64"/><path d="M146 206.49v.88c0 .29 0 .83-.08 1.24a3 3 0 0 1 0 .43 3 3 0 0 1 0 .43.6.6 0 0 1 0 .14c0 .31-.06.63-.12.94a3 3 0 0 1 0 .31c-.06.41-.13.81-.22 1.22s-.15.72-.25 1.07c0 .17-.08.35-.13.52s-.14.55-.22.81-.13.43-.21.63c-.2.63-.43 1.26-.68 1.87-.09.21-.18.42-.28.63-.15.37-.32.72-.49 1.07a9 9 0 0 1-.44.85q-.27.53-.57 1l-.43.71-7-4.07a10 10 0 0 0 .58-1 18.8 18.8 0 0 0 2.09-5.3 11 11 0 0 0 .23-1.14c.07-.39.12-.78.16-1.17s.08-.82.09-1.24 0-.58 0-.87v-.65a5 5 0 0 0 0-.57v-.2a10 10 0 0 0-.11-1.11 3.4 3.4 0 0 0-.08-.57q-.1-.65-.24-1.26a18.5 18.5 0 0 0-.69-2.34c-.07-.19-.15-.38-.22-.56s-.15-.37-.23-.56l-.24-.55-.2-.39c-.12-.25-.26-.51-.4-.76a9 9 0 0 0-.57-.95c-.21-.34-.42-.66-.66-1s-.47-.64-.72-1a19.4 19.4 0 0 0-2.5-2.54 16.6 16.6 0 0 0-1.91-1.42l4.07-7a21 21 0 0 1 1.75 1.2l1 .79c.34.28.68.57 1 .88s.58.54.87.82a.8.8 0 0 1 .12.14c.3.28.58.57.85.87l.21.23.69.82c.28.33.56.69.82 1.05s.51.67.74 1a2 2 0 0 1 .12.18c.18.27.35.53.51.8.06.08.11.17.17.26.22.37.42.73.62 1.1a25 25 0 0 1 1.13 2.34.4.4 0 0 1 .05.12c.17.4.34.81.48 1.22s.29.79.41 1.19l.05.16q.16.51.3 1c.05.15.08.32.12.48.2.79.36 1.58.49 2.4v.07c.07.41.12.83.16 1.25a1 1 0 0 1 0 .18c0 .42.07.85.1 1.27v.17c-.09.62-.09 1.05-.09 1.48" style="fill:#455a64"/><path d="M129.05 190.14a16.6 16.6 0 0 1 1.91 1.42 21 21 0 0 0-1.91-1.42M133.46 194.1a21.4 21.4 0 0 0-2.5-2.54 19.4 19.4 0 0 1 2.5 2.54M133.63 183.44l-.51-.33ZM134.87 184.31c-.4-.31-.82-.59-1.24-.87.43.28.84.56 1.24.87M136.7 199.8a18.5 18.5 0 0 1 .69 2.34 23 23 0 0 0-.69-2.34M137.86 205.85v1.52-.88c0-.3.01-.43 0-.64" style="fill:#a6a6a6"/><path d="M132.07 182.45 128 189.5a19.4 19.4 0 0 0-9.1-2.57v-8.13a27.6 27.6 0 0 1 13.17 3.65" style="fill:#263238"/><path d="m94.38 192.51.23-.37-.22.38ZM94.61 192.14a26.4 26.4 0 0 1 4.11-5.22 27.7 27.7 0 0 0-4.11 5.22M98.72 186.92a24 24 0 0 1 2-1.79c-.72.57-1.37 1.16-2 1.79M100.68 185.13a27.3 27.3 0 0 1 6.84-4.15 28 28 0 0 0-6.84 4.15M107.52 181a26.4 26.4 0 0 1 3.85-1.31 29.6 29.6 0 0 0-3.85 1.31M117.68 178.8a27.8 27.8 0 0 0-6.3.85 27.8 27.8 0 0 1 6.3-.85" style="fill:#7e57c2"/><path d="M117.68 178.82v8.11h-.38c-.3 0-.61 0-.91.06h-.09a18 18 0 0 0-2 .3c-.32.06-.64.13-.95.21l-.71.2-.23.08c-.3.09-.6.19-.89.3h-.06c-.28.1-.56.21-.83.33a19.4 19.4 0 0 0-2.53 1.29 16 16 0 0 0-1.39.94l-.36.26c-.13.09-.25.19-.38.3s-.46.38-.69.58l-.07.06c-.27.25-.54.5-.8.76l-.15.15c-.24.24-.48.5-.7.76l-.11.13c-.25.28-.49.57-.71.86s-.49.65-.71 1c-.23.34-.44.67-.64 1s-.41.71-.59 1.08a.4.4 0 0 1 0 .07c-.14.27-.27.54-.39.83l-.06.13-.24.56c-.07.17-.13.35-.2.52s-.21.61-.31.92-.2.67-.28 1-.14.56-.19.85-.1.49-.14.75a1.7 1.7 0 0 0 0 .38c0 .15 0 .29-.07.44s-.05.44-.06.67 0 .3 0 .45a9 9 0 0 0 0 .88h-8.24a27.3 27.3 0 0 1 3.19-12.56c.17-.36.37-.72.58-1.07l.22-.38a27.7 27.7 0 0 1 4.11-5.22c.63-.63 1.29-1.22 2-1.79a28 28 0 0 1 6.84-4.15 29.6 29.6 0 0 1 3.85-1.31 27.8 27.8 0 0 1 6.27-.73" style="fill:#7e57c2"/><path d="M93.79 193.58a27.3 27.3 0 0 0-3.19 12.56 27.46 27.46 0 0 1 3.19-12.56" style="fill:#c7c7c7"/><path d="m107.39 222.75-4.07 7a27.6 27.6 0 0 1-12.7-22.41h8.13a19.54 19.54 0 0 0 8.64 15.41" style="fill:#37474f"/><path d="M141 222.28a27.67 27.67 0 0 1-36.67 8.15l4.07-7a19.55 19.55 0 0 0 25.6-5.23Z" style="fill:#fff"/><path d="m108.34 206.72-3.53 2.76h3.53a.28.28 0 0 1 .28.26.28.28 0 0 1-.28.28H104a.26.26 0 0 1-.22-.11.27.27 0 0 1 .06-.37l4.16-3.24a2.41 2.41 0 0 0 1-1.84 1.55 1.55 0 0 0-1.61-1.58 2.4 2.4 0 0 0-1.45.52l-.43.35a.27.27 0 0 1-.38-.06.27.27 0 0 1 0-.37l.44-.34a2.87 2.87 0 0 1 1.78-.63 2.06 2.06 0 0 1 2.14 2.11 3 3 0 0 1-1.15 2.26M115.36 203.22a3.7 3.7 0 0 1 .55 2.06 6.5 6.5 0 0 1-.09 1l-.26-.05.26.05a5.6 5.6 0 0 1-1.21 2.65 2.83 2.83 0 0 1-2.07 1.14 1.87 1.87 0 0 1-1.55-.88 3.6 3.6 0 0 1-.55-2.05 6.4 6.4 0 0 1 .08-.95 5.7 5.7 0 0 1 1.21-2.65 2.85 2.85 0 0 1 2.07-1.14 1.89 1.89 0 0 1 1.56.82m0 2.06a3.1 3.1 0 0 0-.46-1.75 1.31 1.31 0 0 0-1.12-.64 2.3 2.3 0 0 0-1.66 1 5.1 5.1 0 0 0-1.09 2.4 5 5 0 0 0-.08.86 3.2 3.2 0 0 0 .46 1.76 1.33 1.33 0 0 0 1.12.63 2.34 2.34 0 0 0 1.67-1 5.1 5.1 0 0 0 1.08-2.39 4.5 4.5 0 0 0 .09-.87ZM123.15 203.22a3.7 3.7 0 0 1 .54 2.06 6.4 6.4 0 0 1-.08 1l-.27-.05.27.05a5.7 5.7 0 0 1-1.21 2.65 2.83 2.83 0 0 1-2.07 1.14 1.88 1.88 0 0 1-1.56-.88 3.7 3.7 0 0 1-.55-2.05 6.5 6.5 0 0 1 .09-.95 5.7 5.7 0 0 1 1.21-2.65 2.83 2.83 0 0 1 2.07-1.14 1.91 1.91 0 0 1 1.56.82m0 2.06a3.2 3.2 0 0 0-.46-1.75 1.32 1.32 0 0 0-1.12-.64 2.34 2.34 0 0 0-1.67 1 5.1 5.1 0 0 0-1.08 2.4 4.3 4.3 0 0 0-.08.86 3.2 3.2 0 0 0 .46 1.76 1.33 1.33 0 0 0 1.12.63 2.34 2.34 0 0 0 1.67-1 5.1 5.1 0 0 0 1.08-2.39 4.5 4.5 0 0 0 .09-.87ZM128.24 202.65l-.77 4.39 5.45-4.64a.27.27 0 0 1 .37 0 .27.27 0 0 1 0 .39l-3.49 3 2.47 3.81a.28.28 0 0 1-.08.38.4.4 0 0 1-.14 0 .25.25 0 0 1-.23-.12l-2.44-3.76-2 1.73-.34 1.93a.28.28 0 0 1-.27.22.28.28 0 0 1-.22-.31l1.26-7.13a.26.26 0 0 1 .31-.22.27.27 0 0 1 .12.33" style="fill:#263238"/><path d="M564 447c2.29.74 67.66-.11 70.13-1.72 1-.6 1.38-10.13 1.57-21.66v-.37c0-2.37.08-4.82.08-7.3v-1c.1-16.65-.17-33.92-.17-33.92l-43.73.44 1.32 33.6v1.33l.26 6.95v.72s-24.88 11.51-27.4 13.57-4.35 8.64-2.06 9.36" style="fill:#eb9481"/><path d="M564 447c2.29.74 67.66-.11 70.13-1.72 1-.6 1.38-10.13 1.57-21.66v-.37c0-2.37.08-4.82.08-7.3v-1l-42.58.12v1.33l.26 6.95v.72s-24.88 11.51-27.4 13.57-4.35 8.64-2.06 9.36" style="fill:#ebebeb"/><path d="M564 447c1.42.46 26.74.31 46.57-.25 12.38-.34 22.61-.85 23.56-1.47s1.37-9.86 1.56-21.18v-.85l-42.18.08v.72s-24.88 11.51-27.4 13.57-4.4 8.66-2.11 9.38" style="fill:#455a64"/><path d="M564.71 444.47c11-.42 55.48-1.05 66.4-.62.09 0 .09.07 0 .07-10.9.65-55.38.92-66.4.73-.23-.01-.24-.17 0-.18M588.83 423.52c4.33-.86 9.64-.27 13 2.78.13.12 0 .3-.18.26a61 61 0 0 0-12.79-2.49.28.28 0 0 1-.03-.55M585.73 425.45c4.32-.87 9.63-.27 13 2.78.13.11 0 .3-.18.26a60.6 60.6 0 0 0-12.8-2.49.28.28 0 0 1-.02-.55M582.62 427.38c4.33-.87 9.64-.27 13 2.77.13.12 0 .3-.18.26a61.7 61.7 0 0 0-12.79-2.49.27.27 0 0 1-.03-.54" style="fill:#263238"/><path d="M585.09 420.29c3.1 2.34 7.11 3.27 10.7 4.54.38.14.67-.22.68-.55a.11.11 0 0 0 .1-.15 23.2 23.2 0 0 0-6.81-9.85c-1.83-1.5-5-2.51-6.69-.14s.21 4.78 2.02 6.15m-1.15-3.48c-.82-4.74 4.32-2.31 5.62-1.16a26 26 0 0 1 2.33 2.46 67 67 0 0 1 4.1 5.66c-1.72-.74-3.5-1.32-5.25-2-2.1-.77-6.34-2.34-6.8-4.96" style="fill:#263238"/><path d="M611 417.33c-1.09-2.69-4.42-2.43-6.55-1.4a23.2 23.2 0 0 0-8.89 8 .11.11 0 0 0 .06.17c-.06.33.14.74.53.69 3.8-.41 7.91-.39 11.46-2 2.04-.85 4.39-2.91 3.39-5.46m-9.26 5.67c-1.86.26-3.73.41-5.58.73a68 68 0 0 1 5.3-4.56 24 24 0 0 1 2.83-1.86c1.53-.82 7.1-2 5.2 2.42-1.04 2.45-5.49 2.98-7.75 3.27M610.57 446.76c12.38-.34 22.61-.85 23.56-1.47s1.37-9.86 1.56-21.18c-5.08 4.53-17.69 15.78-25.12 22.65" style="fill:#263238"/><path d="M649 192.72s-9.81 110.46-11.41 118.89c-.38 1.92-.61 12.36-.75 25.78-.35 29.28 0 86.32 0 86.32H590.8s1.2-95.71 3.27-112.57 15.08-118.42 15.08-118.42Z" style="fill:#37474f"/><path d="M592.88 415.68c7.19-.15 5.13-.21 12.32-.27 3.52 0 26.64-.24 29.93.3.07 0 .07.14 0 .15-3.29.55-26.41.34-29.93.31-7.19-.07-5.13-.13-12.32-.28-.13 0-.13-.2 0-.21M628 359.15l.15-20c0-6.48 0-13 .35-19.42.62-13.1 3.28-26 5.17-38.92s3.46-26 4.89-39c1.6-14.6 3-29.22 4.52-43.83 0-.09.16-.09.15 0-2.17 26.08-4.59 52.16-8.2 78.09q-1.35 9.68-3 19.31c-1.07 6.51-2.14 13-2.65 19.59s-.59 12.9-.65 19.35l-.2 20c-.15 14.83-.15 41.9-.29 56.74 0 .28-.45.27-.45 0 .13-13.22.09-38.68.21-51.91" style="fill:#263238"/><path d="M658.75 192.72s-19.52 110.46-21.12 118.89c-.38 1.92-.61 12.36-.75 25.78l-22-144.71Z" style="fill:#263238"/><path d="M619.28 450.91c2.34.57 67.49-4.9 69.84-6.69.9-.66.65-10.2 0-21.72v-.36c-.13-2.37-.27-4.82-.44-7.29q0-.51-.06-1c-1.09-16.61-2.58-33.82-2.58-33.82l-43.59 3.54 3.7 33.41.14 1.33.76 6.92.07.71s-24 13.25-26.37 15.48-3.81 8.92-1.47 9.49" style="fill:#eb9481"/><path d="M619.28 450.91c2.34.57 67.49-4.9 69.84-6.69.9-.66.65-10.2 0-21.72v-.36c-.13-2.37-.27-4.82-.44-7.29q0-.51-.06-1L646.16 417l.14 1.33.76 6.92.07.71s-24 13.25-26.37 15.48-3.82 8.9-1.48 9.47" style="fill:#ebebeb"/><path d="M619.28 450.91c2.34.57 67.49-4.9 69.84-6.69.9-.66.65-10.2 0-21.72v-.36l-42.07 3.07.07.71s-24 13.25-26.37 15.48-3.81 8.94-1.47 9.51" style="fill:#455a64"/><path d="M619.81 448.32c11-1.19 55.27-5 66.2-5.32.08 0 .09.06 0 .07-10.84 1.42-55.18 4.84-66.19 5.43-.23.01-.24-.16-.01-.18M642.39 425.72c4.25-1.17 9.59-1 13.15 1.85.14.11 0 .3-.16.27a61 61 0 0 0-12.93-1.58.27.27 0 0 1-.06-.54M639.43 427.86c4.25-1.17 9.59-.95 13.15 1.85.14.11 0 .3-.16.27a61.8 61.8 0 0 0-12.93-1.58.27.27 0 0 1-.06-.54M636.47 430c4.25-1.17 9.59-.95 13.15 1.85.14.11 0 .31-.16.27a61 61 0 0 0-12.93-1.57.28.28 0 0 1-.06-.55" style="fill:#263238"/><path d="M638.43 422.76c3.26 2.12 7.32 2.75 11 3.77.38.11.64-.26.63-.59a.12.12 0 0 0 .09-.17 23.14 23.14 0 0 0-7.49-9.34c-1.93-1.36-5.18-2.15-6.68.34s.55 4.75 2.45 5.99m-1.43-3.39c-1.16-4.67 4.14-2.61 5.52-1.55a24.5 24.5 0 0 1 2.5 2.28 67 67 0 0 1 4.49 5.36c-1.77-.61-3.59-1.07-5.39-1.61-2.12-.66-6.44-1.85-7.12-4.48" style="fill:#263238"/><path d="M664 418c-1.27-2.61-4.58-2.12-6.63-.94a23.3 23.3 0 0 0-8.3 8.63.12.12 0 0 0 .08.17.53.53 0 0 0 .57.65c3.76-.68 7.86-.95 11.3-2.77 1.98-1.08 4.2-3.3 2.98-5.74m-8.79 6.31c-1.84.38-3.69.67-5.51 1.12a68 68 0 0 1 4.95-4.93 26 26 0 0 1 2.7-2.05c1.47-.93 6.94-2.51 5.36 2.05-.85 2.5-5.29 3.33-7.48 3.79Z" style="fill:#263238"/><path d="m644.47 424.63 46-1.95S678.65 319 678.42 312.79c-.61-16.11-11.31-120.11-11.31-120.11h-56.23s3.54 24 9.61 39.23a70 70 0 0 1 11.77 5.37s3.36 72.68 3.55 81.26c.39 16.95 8.66 106.09 8.66 106.09" style="fill:#37474f"/><path d="M645.7 416.19c7.17-.45 5.11-.42 12.29-.8 3.51-.18 26.61-1.36 29.92-.95.07 0 .08.13 0 .14-3.26.68-26.37 1.46-29.89 1.58-7.19.23-5.13.09-12.32.24-.13.01-.14-.2 0-.21M663 198.85c2.09 26.19 4.23 52.38 6.63 78.55s12 116.46 14.24 131c0 .1-.13.14-.15 0-4.64-25.86-7.34-60.61-10.25-86.72s-5.27-52.28-7.38-78.45c-1.2-14.81-2.28-29.63-3.41-44.44-.04-.16.32-.15.32.06M618.49 230.87a88 88 0 0 1 13.77 6.41.15.15 0 0 1-.13.28c-4.64-2-9.37-3.89-13.89-6.14a.3.3 0 0 1 .25-.55M617 199c0-.16.3-.2.29 0 0 5.51.32 10.36.78 15.5.22 2.39 2.14 15.6 6.28 14.64.7-.17 1-.85 1.16-1.89a16.5 16.5 0 0 0-.55-4c-.46-2.77-.83-5.54-1.07-8.33a76.3 76.3 0 0 1 .17-15.63.14.14 0 0 1 .27 0 142.5 142.5 0 0 0 1.26 21.56c.52 3.44 2.25 8.61-1.34 9.14s-6-8.13-6.47-10.49A79 79 0 0 1 617 199" style="fill:#263238"/><path d="M624.25 229.5a22 22 0 0 1 .94 2.74 6.5 6.5 0 0 1 .38 2.25c0 .14-.21.16-.28.06a7.8 7.8 0 0 1-1-2.19c-.31-.85-.65-1.69-.94-2.54a.46.46 0 0 1 .9-.32" style="fill:#263238"/><path d="M628.31 134.65c-1.77 7.28-16.1 40.48-15.95 42.95 0 .58 2.92.43 3.2 1.35 1.17 3.75-10.18 31.22-14.37 32.17-12.33 2.78-27.14 4.82-26.92-5.3.34-15.88 30-57.32 44.32-71.21 9.41-9.15 11.48-7.15 9.72.04" style="fill:#ad6359"/><path d="M574.72 211.45c-5.27-7.35-3.86-25.15 43.45-76.73 15-16.36 14.1-2.68 9.08 8.46s-13.83 33.08-13.83 33.08-9.32 33-12.23 34.86-21.28 7.59-26.47.33" style="fill:#7e57c2"/><g style="opacity:.1"><path d="M630.53 130.4a2 2 0 0 1 0 .26h-8.3l.3-.26ZM630.18 134.21v.25h-11.77l.23-.25ZM629.21 138a2 2 0 0 1-.08.25h-14.19l.23-.25ZM627.83 141.82a1 1 0 0 1-.06.15.4.4 0 0 1 0 .11h-16.2c.08-.09.16-.17.23-.26ZM626.16 145.63c0 .09-.08.17-.11.26h-17.87l.22-.26ZM624.51 149.44c0 .08-.07.16-.11.25h-19.49c.06-.07.12-.15.19-.22ZM622.88 153.25l-.1.25h-21.09l.21-.25ZM621.29 157.06c0 .08-.07.16-.11.25h-22.62l.2-.25ZM619.71 160.86l-.11.26h-24.08a3 3 0 0 1 .2-.26ZM618.14 164.67l-.11.26h-25.46l.19-.26ZM616.57 168.48c0 .09-.07.17-.1.25h-26.75a2 2 0 0 0 .19-.25ZM615 172.29c0 .09-.07.17-.1.25H587l.18-.25ZM613.49 176.09c0 .11-.07.17-.07.17v.09h-29c.06-.08.11-.17.17-.26ZM612.37 179.9c0 .09 0 .17-.07.26h-30.47v-.26ZM611.25 183.71c0 .08 0 .17-.08.25h-31.45l.14-.25ZM610.09 187.52a2 2 0 0 1-.07.25h-32.36c0-.08.09-.16.13-.25ZM608.92 191.33c0 .09 0 .17-.08.25h-33l.12-.25ZM607.71 195.13l-.09.26h-33.26l.09-.26ZM606.45 198.94l-.09.25h-33.11l.06-.25ZM605.11 202.75a1.5 1.5 0 0 1-.09.25h-32.35v-.25ZM603.66 206.56c0 .09-.07.17-.1.25h-30.73a2 2 0 0 1 0-.25ZM601.85 210.36l-.18.26h-27.48a1.4 1.4 0 0 1-.15-.26ZM592 214.17l-1.36.26h-11.3a8 8 0 0 1-.81-.26Z"/><path d="M627.77 127.23V142a.4.4 0 0 1 0 .11c-.06.17-.13.33-.2.49v-15.3a1 1 0 0 1 .2-.07M624 129.23v21.49l-.25.58v-21.89ZM620.16 132.64v27.13l-.26.62V132.9ZM616.35 136.71V169c-.09.21-.17.42-.25.62V137ZM612.54 140.94v38.37c0 .19-.11.39-.17.59s0 .17-.07.26v-38.94ZM608.73 145.25v46.68c-.08.26-.17.53-.25.8v-47.19ZM604.93 149.66v53.59c-.08.24-.17.48-.26.72V150a3 3 0 0 1 .24-.28ZM601.12 154.19v57l-.26.16v-56.84c.08-.1.14-.21.26-.32M597.31 158.86v53.89l-.25.09v-53.67c.08-.1.16-.17.25-.31M593.5 163.71v50.12a2 2 0 0 1-.25.06V164ZM589.7 168.76v45.84h-.26v-45.48ZM585.89 174.16V215h-.26v-40.46c.08-.13.17-.25.26-.38M582.08 179.9v35a2 2 0 0 1-.25 0v-35ZM578.27 186.61v27.46L578 214v-26.92ZM574.46 195.11v16c-.09-.13-.17-.27-.25-.41v-14.87l.15-.44.09-.26Z"/></g><path d="M674.11 212.18c-.16.18-69.34.39-70-.32-.88-1 13.82-75.48 23.68-85.64 1.74-1.8 10.54-3.14 14.75.31 11.74 9.6 15 18.67 18 26.35 2.19 5.69 4.8 15.38 7.13 25.31 3.87 16.36 7.01 33.34 6.44 33.99" style="fill:#7e57c2"/><path d="M619.42 142.59c-.85 2.54-1.44 4.41-2 6.41a41 41 0 0 1 .06-4.27c0-.09-.14-.11-.15 0q-.13.82-.24 1.65c-.07.53-.2 1-.26 1.58a23 23 0 0 0-.17 3.34.3.3 0 0 0 0 .17c-.2.7-.4 1.42-.62 2.23q-1.81 6.52-3.41 13.12-3.18 13.18-5.63 26.63c-.94 5.05-1.82 10.13-2.42 15.23a.09.09 0 1 0 .17 0c1-4.43 1.89-8.91 2.86-13.36s1.89-8.83 2.87-13.25c2-8.86 4-17.7 6.14-26.54 1.17-5 2.06-7.89 3.19-12.89a.19.19 0 0 0-.39-.05" style="fill:#263238"/><g style="opacity:.1"><path d="M643 126.85h-15.73l.21-.26h15.16l.11.09ZM647.16 130.66h-22.22c0-.09.08-.17.13-.26h21.82ZM650.62 134.45h-27.41l.1-.25h27.11ZM653.48 138.27h-31.76l.1-.25h31.49ZM655.81 142.08h-35.42l.09-.26h35.18ZM657.71 145.89h-38.56c0-.09.06-.18.08-.26h38.35a2 2 0 0 1 .13.26M659.31 149.69H618l.07-.25h41.15a3 3 0 0 1 .09.25M660.79 153.5h-43.91l.07-.25h43.74a3 3 0 0 0 .1.25M662.09 157.31h-46.27c0-.09 0-.17.07-.25H662v.09a1 1 0 0 0 .09.16M663.25 161.12H614.8c0-.09.05-.18.07-.26h48.31c.02.08.05.14.07.26M664.33 164.93h-50.51l.06-.26h50.38a3 3 0 0 1 .07.26M665.35 168.73h-52.48a2 2 0 0 1 .06-.25h52.36c.01.08.04.16.06.25M666.32 172.54h-54.38l.06-.25h54.26ZM667.24 176.35H611l.06-.26h56.08a2 2 0 0 1 .1.26M668.14 180.16h-58l.06-.26h57.86ZM669 184h-59.7l.06-.25H669ZM669.85 187.77h-61.37a2 2 0 0 0 0-.25h61.26ZM670.66 191.58h-63a2 2 0 0 0 .05-.25h62.89c.03.09.04.17.06.25M671.44 195.39h-64.55a2 2 0 0 0 .05-.26h64.45c.02.09.04.18.05.26M672.2 199.19h-66.06c0-.08 0-.16.05-.25h66a2 2 0 0 0 .01.25M672.91 203h-67.49v-.25h67.41c.05.08.07.17.08.25M673.57 206.81h-68.82v-.25h68.74c.05.09.07.17.08.25M674.1 210.62h-69.93v-.26h69.88a3 3 0 0 1 .05.26"/><path d="M673.21 204.68c.09.51.17 1 .25 1.46v6.07h-.25ZM669.4 185.73c.09.39.17.79.26 1.18v25.35h-.26ZM665.6 169.69c.08.33.17.66.25 1v41.61h-.25ZM662 157.06v55.26h-.25v-55.93c.11.22.18.44.25.67M658.23 147.08v65.25H658V146.5c.07.19.15.39.23.58M654.43 139.74v72.61h-.26v-73c.09.12.18.25.26.39M650.62 134.45v77.9h-.26v-78.21l.06.07ZM646.81 130.32v82h-.25v-82.25ZM643 126.89v85.47h-.25v-85.68l.2.17a.1.1 0 0 1 .05.04M639.2 124.9v87.46h-.26v-87.53ZM635.39 124.4v87.95h-.26v-88ZM631.58 124.72v87.62h-.25v-87.57ZM627.77 126.27v86.06h-.25v-85.78c.08-.1.17-.19.25-.28M624 132.73v79.58h-.25v-79c.04-.21.12-.4.25-.58M620.16 142.76v69.52h-.26v-68.73c.1-.27.18-.55.26-.79M616.35 155.39v56.86h-.25V156.3c.08-.3.16-.61.25-.91M612.54 170.05v42.15h-.25v-41.12c.08-.35.17-.69.25-1.03M608.73 186.61v25.51h-.25v-24.35a2 2 0 0 0 0-.25c.12-.3.19-.61.25-.91M604.93 205.71V212h-.26v-4.71c0-.14.05-.28.08-.43s0-.16 0-.25c.08-.32.13-.61.18-.9"/></g><path d="M647.15 140.24C652 146 672 165.75 672.88 168.05s-5.66 9.23-5.55 10.19c.44 3.9 8.47 28.93 11.79 26.2 4.37-3.58 24.49-27.84 21.57-38.58s-47.61-36.35-54.69-38.44-4.83 5.69 1.15 12.82" style="fill:#ad6359"/><path d="M645.46 139.48c5.36 7.46 26.73 28 26.61 28.92s-5 8.62-5 8.62l16.42 23.86s19.51-21.34 18-34.68S656 131 648.83 127.89s-11.78-.1-3.37 11.59" style="fill:#7e57c2"/><g style="opacity:.1"><path d="M645.47 126.85h-2.35a6.2 6.2 0 0 1 2.35 0M654.69 130.66H641v-.26h13.2l.26.13a2 2 0 0 0 .23.13M662.07 134.46h-19.73l-.12-.25h19.38l.19.1.25.14ZM669 138.27h-24.39l-.17-.25h24.12ZM675.48 142.08h-28l-.22-.26h27.76ZM681.5 145.89h-30.64l-.24-.26h30.48ZM687 149.69h-32.6l-.23-.24h32.47ZM691.9 153.5H658v-.06l-.19-.19h33.8ZM696.06 157.31h-34.33a3 3 0 0 1-.25-.25h34.33a3 3 0 0 1 .25.25M699.29 161.12h-33.86l-.25-.26h33.93ZM701.24 164.93H669.1l-.25-.26h32.31c.03.09.05.18.08.26M701.56 168.48v.25H672c0-.1.07-.19.09-.25ZM701 172.29c0 .08 0 .16-.07.25h-31.09l.15-.25ZM699.77 176.09a3 3 0 0 1-.1.26h-32.19l.17-.26ZM698.1 179.9l-.12.26h-28.76l-.18-.26ZM696.06 183.71c0 .08-.09.16-.14.24h-24.08l-.18-.25ZM693.72 187.52c-.05.09-.11.17-.16.25h-19.1l-.17-.25ZM691.11 191.33l-.18.25H677v-.09l-.11-.16ZM688.27 195.13c-.07.09-.14.17-.2.26h-8.37l-.18-.26ZM685.17 198.94l-.21.25h-2.64l-.18-.25Z"/><path d="M699.87 162a5 5 0 0 1 .25.42v12.72c-.08.23-.16.46-.25.69ZM696.31 157.57v25.72l-.24.42v-26.4a3 3 0 0 1 .24.26M692.5 154v35.34l-.25.37V153.8ZM688.7 151v43.6c-.09.11-.18.23-.26.35v-44.18ZM684.89 148.19v51.08l-.26.31V148ZM681.08 145.62v51.77l-.25-.36v-51.58ZM677.27 143.18v48.68l-.19-.28H677V143ZM673.46 140.87v45.45l-.25-.36v-45.24a1.7 1.7 0 0 1 .25.15M669.66 138.65v26.87a4 4 0 0 1-.26-.28V138.5ZM669.66 172.84v8l-.26-.38v-7.15ZM665.85 136.51v25a3 3 0 0 1-.25-.26v-24.88ZM662 134.45v23.19l-.25-.26v-23.07ZM658.23 132.45v21.26l-.2-.21v-21.18ZM654.43 130.53v19.19l-.23-.24v-19ZM650.62 128.69v16.94a4 4 0 0 0-.26-.29v-16.76ZM646.81 127.15v14.08l-.25-.31v-13.83ZM643 126.88v8.8c-.09-.15-.17-.3-.25-.45V127Z"/></g><path d="M661.82 157.17c-1-1-1.91-2.18-2.9-3.24-.65-.69-1.31-1.37-2-2.06h-.05l-1.07-1.12c-1-1-2-2.07-3.06-3.08a41 41 0 0 0-3.29-3c-.05 0-.16 0-.1.09a37 37 0 0 0 2.81 3.19l.14.15c-.71-.51-1.43-1-2.14-1.56-.08-.06-.19 0-.1.11 1.15.87 2.23 1.81 3.32 2.75l.83.69c.35.36.69.72 1 1.08 1 1 2 2.06 3.07 3.07s2.28 2 3.35 3.13a.08.08 0 0 0 .19-.2" style="fill:#263238"/><path d="M664.41 215.25C661.69 212.9 666 211 666 211s-6.86 1.19-8.73-2.32 3.5-5.44 3.88-5.6c-.36.06-6.7 1-8.21-2.72-1.58-3.86 4.1-5 4.46-5.1-.36-.05-5.12-.81-5.63-3.9-.88-5.29 12.94-4.28 16.27-7.06 0 0-.54-6.92-.62-7.12A7.82 7.82 0 0 0 671 181c2.88 1.19 5.5 2 6.54 3.56a3.94 3.94 0 0 1-.1 4.69s3.81 0 5.09 2.89c.66 1.49-1.13 3.85-1.13 3.85s3 .13 4 2.77c.8 2.1-1.12 4.15-1.12 4.15s2.87 1.49 3 3.9c.2 4.85-17.04 13.45-22.87 8.44" style="fill:#ad6359"/><path d="M684 203.27s.11 0 .06.08a33.4 33.4 0 0 1-18.28 7.82c-.21 0-.33-.33-.1-.39a68.4 68.4 0 0 0 18.32-7.51M681.45 196c.07 0 .13.06.07.11-5.15 4.32-12.86 7.6-20.47 7.29-.26 0-.48-.28-.18-.29 5.07-.2 15.27-3.89 20.58-7.11M656.89 195.1c7.31 0 13.88-2.31 20.3-5.66.08-.05.13.08.07.13-2.69 2.5-7 4.21-10.46 5.26a19.2 19.2 0 0 1-9.91.52c-.13-.03-.16-.25 0-.25" style="fill:#263238"/><path d="M684.45 202.91c1.22-1.21 2.15-2.81 1.62-4.58a3.47 3.47 0 0 0-1.49-1.92 6.2 6.2 0 0 0-2.78-.59 4.52 4.52 0 0 0 .67-5.09 3.42 3.42 0 0 0-2-1.42 11 11 0 0 0-2.95-.22 4.06 4.06 0 0 0 1.26-3.39 4.37 4.37 0 0 0-2.32-3.21 20.6 20.6 0 0 0-4.53-1.63 10.6 10.6 0 0 1-2.29-.93 5.7 5.7 0 0 1-1.67-1.86c-.06-.09-.15-.14-.1 0a4.2 4.2 0 0 0 1 1.52 7.3 7.3 0 0 0 1.49 1.23 33 33 0 0 0 4.27 1.82 6.22 6.22 0 0 1 3.07 2.58 3.72 3.72 0 0 1-.33 3.9c0 .06 0 .15.09.16a11 11 0 0 1 2.59.6 3.75 3.75 0 0 1 1.7 1.36 4.77 4.77 0 0 1-.33 4.75 8.3 8.3 0 0 1 2.67 1 3.43 3.43 0 0 1 1.13 1.59 4.12 4.12 0 0 1-.93 4.23.14.14 0 0 0 0 .06s.92.51 1 .52 0 0 0-.06a8 8 0 0 0-.84-.42" style="fill:#263238"/><path d="M631.41 135.24c2.63.66 9.28-3.24 11.81-7.74.18-.31-1-12.76-.94-15.25 0-.51-15.66 3.61-15.66 3.61a52.7 52.7 0 0 1 1.4 9.58c.09 4.42-.02 8.93 3.39 9.8" style="fill:#ad6359"/><path d="M641.65 112.26c-.62 3.42-3.29 14.39-12.17 14.48a9 9 0 0 1-1.44-.09v-1.21a52.5 52.5 0 0 0-1.4-9.57s12.09-3.19 15.01-3.61M621.76 85s-4.46 2.32-4.89 7.09 1.06 9.6 1.48 9.8S621.76 85 621.76 85" style="fill:#263238"/><path d="M638.36 121.06" style="fill:none;stroke:#f5a79e;stroke-linecap:round;stroke-linejoin:round;stroke-width:0"/><path d="M642.8 91.15c2.29 5.32 1.13 21.54-2.4 25.52-5.11 5.76-14.35 7.27-19.46.93-5-6.15-3.08-27.26.94-31 5.92-5.42 17.55-3.31 20.92 4.55" style="fill:#ad6359"/><path d="M630.34 102.46s.08.06.07.11c-.1 1.09 0 2.35.92 2.78v.06c-1.21-.25-1.27-1.93-.99-2.95" style="fill:#263238"/><path d="M631.39 101.39c1.76 0 1.67 3.52 0 3.53s-1.48-3.52 0-3.53M624 102.47s-.08 0-.08.09c0 1.1-.18 2.35-1.18 2.69v.06c1.26-.13 1.43-1.8 1.26-2.84" style="fill:#263238"/><path d="M623.05 101.3c-1.76-.18-2 3.34-.37 3.51s1.84-3.36.37-3.51M632.83 99.81a13 13 0 0 1-1.36-.52 2.35 2.35 0 0 1-1.28-.79.74.74 0 0 1 .14-.9 1.84 1.84 0 0 1 1.88-.14 2.7 2.7 0 0 1 1.53 1.22.79.79 0 0 1-.91 1.13M621.73 99.48c.49-.07.93-.21 1.41-.32a2.4 2.4 0 0 0 1.38-.61.75.75 0 0 0 0-.92 1.83 1.83 0 0 0-1.83-.39 2.68 2.68 0 0 0-1.69 1 .8.8 0 0 0 .73 1.24M631.07 112.65c-.27.25-.54.6-.94.62A2.9 2.9 0 0 1 629 113s-.07 0-.05.06a1.45 1.45 0 0 0 1.37.63 1.15 1.15 0 0 0 .89-.94c-.02-.11-.1-.13-.14-.1" style="fill:#263238"/><path d="M630 109.34a3.7 3.7 0 0 1-2.54 1.59 4.6 4.6 0 0 1-1.34 0h-.49a.28.28 0 0 1-.22-.25s0-.07 0-.11v-.1c0-.84.12-2.12.12-2.12-.31.15-1.9.81-1.87.37a56.6 56.6 0 0 1 1.76-11.24.1.1 0 0 1 .2 0c-.17 3.51-.95 7-1.17 10.49a6.7 6.7 0 0 1 1.77-.48c.12 0-.27 2.47-.24 2.84a5.14 5.14 0 0 0 3.89-1.09c.13-.06.21.02.13.1" style="fill:#263238"/><path d="M626.64 110.55a4.5 4.5 0 0 0 1.73 1.42 2.07 2.07 0 0 0 1.21.11c.88-.21.92-1 .78-1.7a4.7 4.7 0 0 0-.36-1.07 5.7 5.7 0 0 1-3.36 1.24" style="fill:#263238"/><path d="M628.37 112a2.07 2.07 0 0 0 1.21.11c.88-.21.92-1 .78-1.7a2.06 2.06 0 0 0-1.99 1.59" style="fill:#eb9481"/><path d="M642 104.36c-1.79.35-3.27-5.09-3.63-7.16-.32-1.83-.33-7.52-.37-7.91s-8.1 4.22-12.37 2.49-6.8-6-6.67-7.81 6-6 10.79-5.73 10.53 6.88 10.53 6.88a22 22 0 0 1-1.81-3c.09-.21 3 1.32 3.36 3.55 0 0-.33-2.79-.09-2.82s2.37 2.55 1.65 4.26c0 0 2.5 2.66 2.49 5.28s-1.78 11.54-3.88 11.97" style="fill:#263238"/><path d="M622.59 90.55a15 15 0 0 0 4 1.9 10 10 0 0 0 4.82-.28 15 15 0 0 0 4.4-2c1.19-.79 2.27-1.78 3.53-2.47.31-.17.61.28.4.54a15.9 15.9 0 0 1-8.56 5.06 9.1 9.1 0 0 1-8.6-2.68s-.02-.09.01-.07" style="fill:#263238"/><path d="M640.83 104.48s3.14-5.47 5.59-4.4.42 8.79-2.24 10.06a2.8 2.8 0 0 1-3.87-1.17Z" style="fill:#ad6359"/><path d="M645.78 102.28c.05 0 .06 0 0 .07-1.85 1-2.7 2.83-3.25 4.74a1.55 1.55 0 0 1 2.27-.62s0 .11 0 .1a1.72 1.72 0 0 0-1.84.77 8.5 8.5 0 0 0-.77 1.61c-.07.18-.39.12-.34-.09-.28-2.49 1.32-6.1 3.93-6.58" style="fill:#263238"/><path d="m634.13 141.83-3.08-5.45-3.98 4.34.97 4.32 3.93.51z" style="fill:#455a64"/><path d="m631.97 145.55 1.88 44.14-8.27 14.6-4.3-16.43 6.76-42.82z" style="fill:#455a64"/><path d="m627.91 125.68 3.77 9.08 11.21-11.68 3.26 3.67s-10.89 18.48-11 17.65l-3.85-7.82-5.3 5.53.28-13.75Z" style="fill:#7e57c2"/><path d="M625.72 135.31c.12-2.27.18-4.56.41-6.82 0-.08.13-.11.15 0 .48 2.18 0 10.86 0 12.93.23-.24 5-4.88 5-4.8.83 1.24 3.66 6.94 3.85 7.45 1.72-2.93 8.33-13.6 10.37-16.38a.08.08 0 0 1 .14.07c-1.52 3.1-10.25 17.47-10.39 17.43a89 89 0 0 1-4-8.27c-.8 1-5.59 6.23-5.62 5.89a71 71 0 0 1 .09-7.5" style="fill:#263238"/><path d="M596.37 156.71h40.32v52.48h-40.32z" style="fill:#263238" transform="rotate(-13.54 616.326 182.893)"/><path d="M600.71 154.77h19.11v5.79h-19.11z" style="fill:#ebebeb" transform="rotate(166.4 610.269 157.665)"/><path d="m604.52 156.08 2.28-.55-.62-2.59 5.55-1.35.63 2.6 2.29-.56-1.15-4.72-10.16 2.45z" style="fill:#ebebeb"/><path d="M618.13 172.68a4.16 4.16 0 0 1 .78 4.69 6.18 6.18 0 0 1 3.58 2.2c1.5 2.06-1.08 5.31-1.08 5.31a7.65 7.65 0 0 1 3.41 2.92c1.23 2.11-.91 5.76-.91 5.76a6.7 6.7 0 0 1 1.38 4.46c-.41 4.27-6.27 7.19-10 9.09s-16 3.81-18.32 4.41l-12.38-23.71s14.23-13.24 18.91-14.81c3.94-1.4 12.27-2.56 14.63-.32" style="fill:#ad6359"/><path d="M618.55 177.08c-4.54.43-8.7 2.19-12.95 3.71a.07.07 0 1 0 0 .14c4.21-1.55 8.68-2.25 12.94-3.64.17-.04.13-.23.01-.21M621.17 184.61a12 12 0 0 0-2.95 1c-1 .43-2 .86-3 1.32-2 .91-4 1.86-6 2.88-.09 0 0 .19 0 .15 2-.91 4-1.78 6.06-2.6 1-.41 2-.81 3.07-1.2a14.2 14.2 0 0 0 2.85-1.25.15.15 0 0 0-.03-.3M623.83 193.6a7.9 7.9 0 0 0-2.61 1l-2.72 1.28c-1.83.85-3.65 1.7-5.5 2.48a.08.08 0 1 0 .06.14c1.88-.78 3.77-1.54 5.65-2.34l2.76-1.2a7.9 7.9 0 0 0 2.4-1.3.05.05 0 0 0-.04-.06M586.64 185.9c-1.88 1.45-5.79 4.86-6.13 5.2l-.43.28c-.6.4-1.19.81-1.76 1.26a33 33 0 0 0-3.07 2.85.08.08 0 0 0 .11.11 29 29 0 0 1 3.28-2.66l.46-.31c-.56.61-1.1 1.24-1.6 1.89a54 54 0 0 0-3.71 5.41.08.08 0 0 0 .13.08c2.07-3.33 11.4-12.53 12.8-14 .19-.23-.01-.16-.08-.11" style="fill:#263238"/><path d="M581.14 189.17 593.3 216l7.16-1.75-14.26-29.83z" style="fill:#7e57c2"/><path d="M591.37 210.84c-.4-.91-.81-1.82-1.22-2.72-.85-1.89-1.72-3.76-2.59-5.64s-1.74-3.78-2.64-5.65c-.45-.93-.91-1.86-1.39-2.78s-1.1-1.87-1.55-2.83c-.05-.09-.18 0-.14.08.49 1 .83 2.15 1.28 3.21.38.91.79 1.82 1.2 2.73.85 1.84 1.72 3.67 2.59 5.5s1.78 3.75 2.7 5.62c.44.9.87 1.79 1.32 2.68a25 25 0 0 0 1.52 2.85.08.08 0 0 0 .14-.06 25 25 0 0 0-1.22-2.99M586.06 184.15c-.93.8-4.93 4.74-5.15 5a10.7 10.7 0 0 0 .91 1.63 13 13 0 0 0-.55-1.5c.15-.11 4.06-3.73 4.81-4.53 0 0 .61.92.68 1s.11 0 .08-.05a7 7 0 0 0-.78-1.55" style="fill:#263238"/></svg>